<?xml version="1.0" encoding="iso-8859-1"?>
<!-- Generator: Adobe Illustrator 16.0.4, SVG Export Plug-In . SVG Version: 6.00 Build 0)  -->
<!DOCTYPE svg PUBLIC "-//W3C//DTD SVG 1.1//EN" "http://www.w3.org/Graphics/SVG/1.1/DTD/svg11.dtd">
<svg version="1.1" id="Capa_1" xmlns="http://www.w3.org/2000/svg" xmlns:xlink="http://www.w3.org/1999/xlink" x="0px" y="0px"
	 width="27.207px" height="10.566px" fill="#fff" viewBox="0 0 27.207 10.566" style="enable-background:new 0 0 27.207 10.566;"
	 xml:space="preserve">
<g>
	<path d="M16.488,5.284l4.43-4.431c0.195-0.195,0.195-0.512,0-0.707c-0.195-0.195-0.512-0.195-0.707,0l-4.662,4.662
		c-0.041-0.01-0.082-0.025-0.127-0.025H1.915l3.927-3.93c0.195-0.194,0.195-0.512,0-0.706c-0.195-0.195-0.512-0.195-0.707,0
		l-4.779,4.78C0.355,4.93,0.354,4.93,0.353,4.932L0,5.284l5.136,5.135c0.098,0.099,0.226,0.146,0.354,0.146
		c0.128,0,0.256-0.05,0.354-0.146c0.195-0.194,0.195-0.512,0-0.706l-3.931-3.93h13.509c0.044,0,0.084-0.016,0.125-0.025l4.664,4.662
		c0.098,0.098,0.226,0.146,0.354,0.146s0.256-0.049,0.354-0.146c0.195-0.195,0.195-0.512,0-0.707L16.488,5.284z"/>
	<path d="M19.559,5.283l4.431-4.43c0.195-0.195,0.195-0.512,0-0.707c-0.195-0.195-0.512-0.195-0.707,0l-5.138,5.137l5.138,5.137
		c0.098,0.098,0.226,0.146,0.354,0.146c0.128,0,0.256-0.049,0.354-0.146c0.195-0.195,0.195-0.512,0-0.707L19.559,5.283z"/>
	<path d="M22.632,5.284l4.428-4.431c0.195-0.194,0.195-0.512,0-0.706c-0.195-0.195-0.512-0.195-0.707,0l-5.135,5.137l5.135,5.136
		c0.098,0.098,0.226,0.146,0.354,0.146s0.256-0.049,0.354-0.146c0.195-0.195,0.195-0.512,0-0.707L22.632,5.284z"/>
</g>
<g>
</g>
<g>
</g>
<g>
</g>
<g>
</g>
<g>
</g>
<g>
</g>
<g>
</g>
<g>
</g>
<g>
</g>
<g>
</g>
<g>
</g>
<g>
</g>
<g>
</g>
<g>
</g>
<g>
</g>
</svg>
