<?xml version="1.0" encoding="iso-8859-1"?>
<!-- Generator: Adobe Illustrator 16.0.4, SVG Export Plug-In . SVG Version: 6.00 Build 0)  -->
<!DOCTYPE svg PUBLIC "-//W3C//DTD SVG 1.1//EN" "http://www.w3.org/Graphics/SVG/1.1/DTD/svg11.dtd">
<svg version="1.1" id="Capa_1" xmlns="http://www.w3.org/2000/svg" xmlns:xlink="http://www.w3.org/1999/xlink" x="0px" y="0px"
	 width="10.566px" height="27.207px" viewBox="0 0 10.566 27.207" style="enable-background:new 0 0 10.566 27.207;"
	 xml:space="preserve">
<g>
	<path d="M10.42,6.289c-0.195-0.195-0.512-0.195-0.707,0l-4.429,4.43l-4.431-4.43c-0.195-0.195-0.512-0.195-0.707,0
		c-0.195,0.195-0.195,0.512,0,0.707l4.663,4.661c-0.011,0.042-0.026,0.083-0.026,0.128v13.507l-3.93-3.927
		c-0.195-0.195-0.512-0.195-0.707,0c-0.195,0.195-0.195,0.512,0,0.707l4.781,4.777c0.001,0.002,0.003,0.004,0.005,0.006l0.352,0.352
		l5.135-5.137c0.195-0.194,0.195-0.512,0-0.707c-0.195-0.194-0.512-0.194-0.707,0l-3.929,3.931V11.785
		c0-0.045-0.015-0.085-0.025-0.126l4.662-4.663C10.615,6.801,10.615,6.484,10.42,6.289z"/>
	<path d="M9.713,3.218l-4.43,4.431l-4.43-4.431c-0.195-0.194-0.512-0.194-0.707,0c-0.195,0.195-0.195,0.513,0,0.707l5.137,5.138
		l5.137-5.138c0.195-0.194,0.195-0.512,0-0.707C10.225,3.023,9.908,3.021,9.713,3.218z"/>
	<path d="M5.284,5.989l5.136-5.136c0.195-0.194,0.195-0.512,0-0.707c-0.195-0.194-0.512-0.194-0.707,0L5.284,4.575L0.853,0.146
		c-0.195-0.195-0.512-0.195-0.707,0c-0.195,0.194-0.195,0.512,0,0.707L5.284,5.989z"/>
</g>
<g>
</g>
<g>
</g>
<g>
</g>
<g>
</g>
<g>
</g>
<g>
</g>
<g>
</g>
<g>
</g>
<g>
</g>
<g>
</g>
<g>
</g>
<g>
</g>
<g>
</g>
<g>
</g>
<g>
</g>
</svg>
