<?xml version="1.0" encoding="iso-8859-1"?>
<!-- Generator: Adobe Illustrator 16.0.4, SVG Export Plug-In . SVG Version: 6.00 Build 0)  -->
<!DOCTYPE svg PUBLIC "-//W3C//DTD SVG 1.1//EN" "http://www.w3.org/Graphics/SVG/1.1/DTD/svg11.dtd">
<svg version="1.1" id="Layer_1" xmlns="http://www.w3.org/2000/svg" xmlns:xlink="http://www.w3.org/1999/xlink" x="0px" y="0px"
	 width="612px" height="598.5px" viewBox="0 0 612 598.5" style="enable-background:new 0 0 612 598.5;" xml:space="preserve">
<g>
	<path d="M221.691,323.52c-8.84-5.519-13.149-17.104-10.982-29.517c2.607-14.867,13.47-23.821,29.12-24.105
		c-11.366-26.313-37.542-44.734-68.032-44.734c-40.917,0-74.077,33.167-74.077,74.084c0,40.922,33.159,74.088,74.077,74.088
		c30.855,0,57.292-18.863,68.434-45.686c-0.838,0.06-1.68,0.103-2.529,0.103C231.746,327.752,226.06,326.249,221.691,323.52z
		 M149.67,317.247c-4.577-2.252-7.732-6.952-7.732-12.396c0-7.629,13.815-29.277,13.815-29.277s1.014,1.586,2.483,4.039
		c6.05,11.361,9.81,20.903,9.81,24.911c0,7.773-5.753,14.102-12.824,14.102c-1.917,0-3.779-0.475-5.541-1.398L149.67,317.247z
		 M171.834,334.059c-8.661,0-16.183-4.806-20.097-11.889c1.14,0.266,2.303,0.413,3.484,0.413c9.253,0,16.779-8.103,16.779-18.06
		c0-6.44-6.523-19.648-9.822-25.92c5.072-9.083,9.656-16.27,9.656-16.27s22.998,36.024,22.998,48.726
		C194.832,323.759,184.541,334.059,171.834,334.059z"/>
	<path d="M505.919,281.895c-2.473-2.146-3.076-3.698-1.793-6.816l2.214-5.471l-10.512-0.011l-1.118,3.996
		c-1.646,5.876-5.075,10.698-10.158,14.247c-1.273,0.89-2.036,1.185-2.919-0.583c-3.014-6.045-8.313-8.842-14.744-9.943
		c-6.75-1.15-22.547-0.583-22.547-0.583l-0.51,2.677c-0.864,4.119-2.685,7.706-6.477,9.958c-1.1,0.654-1.954,1.073-2.673,0.436
		c-0.316-0.281-0.61-0.777-0.887-1.561c-5.604-15.925-25.896-16.189-34.354-8.288c-7.414,6.919-8.729,15.687-7.078,25.113
		c1.067,6.082,3.94,11.225,9.471,14.469c14.465,8.5,31.996-0.521,33.573-17.242c0.122-1.309-0.352-2.9,1.634-3.385
		c2.398-0.583,4.411-2.045,6.727-3.294c0.775,1.447,0.483,2.628,0.488,3.761c0.032,13.92,0.026,33.791,0.039,47.709l10.746,0.021
		l-0.026-26.541c0,0,1.613,0.334,2.559,0.574c4.771,1.244,9.564,0.951,14.124-0.843c8.646-3.425,11.526-10.692,12.106-19.235
		c0.134-1.96,0.563-3.173,2.521-4.011c3.576-1.531,6.742-3.856,9.104-6.934c1.65-2.155,2.873-1.449,4.222-0.069
		c3.771,3.874,4.396,8.619,3.405,13.672c-1.311,6.692-6.671,10.407-13.283,9.403l-4.1-0.617l0.014,8.695l2.257,0.575
		c8.271,2.231,18.614-1.676,22.896-8.978C516.81,302.611,514.91,289.657,505.919,281.895z M423.475,304.624
		c-1.025,3.201-2.36,6.146-5.491,7.765c-5.016,2.586-11.07,0.23-13.324-5.193c-1.117-2.709-1.808-5.549-1.59-8.092
		c-0.037-4.246,0.713-7.855,2.936-11.042c2.252-3.233,5.482-4.137,9.213-3.704c3.463,0.396,5.604,2.545,7.104,5.523l0.979,2.315
		l-2.219,0.014h-2.857v8.766l2.682,0.017c0.632,0,3.517,0,3.517,0C424.398,301.854,423.475,304.624,423.475,304.624z
		 M472.101,303.16c-0.911,6.447-7.777,12.457-15.134,8.259c-1.38-0.782-1.979-0.637-1.965-2.252v-23.456l2.61-0.02
		c5.102,0.077,9.974,0.496,13.179,5.434c-1.604,1.222-4.157,1.348-4.157,1.348l-0.021,8.157l3.255-0.129
		c0.977-0.041,2.552-0.124,2.552-0.124L472.101,303.16z"/>
	<path d="M367.267,284.18l-0.011-7.623l-10.436-0.032l-0.018,26.838c-0.048,4.236-3.56,7.812-7.398,7.838
		c-3.632,0.011-5.055-2.118-5.104-7.521c0-0.812,0-1.64,0-2.457v-52.537l-15.771-0.015l-0.014,8.865l3.835-0.014
		c1.449,0.192,1.248,1.884,1.263,2.929c0.038,3.852-0.13,7.716,0.063,11.564c0.123,2.424-0.835,2.963-3.023,2.927
		c-3.639-0.052-7.23,0.458-10.675,1.692c-12.193,4.353-18.956,17.498-16.038,30.99c1.412,6.542,4.254,12.133,11.119,14.041
		c7.916,2.192,15.079,0.794,20.224-6.383c4.521,6.485,8.682,8.077,15.241,6.332c2.22-0.583,6.385-2.542,6.385-2.542l-0.011,2.921
		l11.231,0.006l0.037-20.872c0-5.141,2.188-9.974,6.844-13.12c1.115-0.754,1.832-1.322,3.02-0.94
		c1.443,0.476,1.271,3.066,1.271,3.066l0.006,3.612l9.157-0.011v-15.293l0.013-3.121l-2.995,0.026
		C378.182,275.26,367.267,284.18,367.267,284.18z M333.02,304.511c-1.479,4.656-5.825,7.722-10.61,7.347
		c-4.291-0.33-6.883-3.303-7.525-8.646c-0.994-8.142,2.377-14.976,8.676-17.891c2.685-1.234,5.443-1.015,8.239-0.941
		c1.577,0.041,1.855,1.045,1.843,2.361c-0.036,2.45-0.014,4.897-0.014,8.021C333.446,297.562,334.119,301.064,333.02,304.511z"/>
	<path d="M287.315,277.395c-7.806-3.681-15.735-3.598-22.99,1.303c-7.735,5.213-10.065,13.289-9.491,22.069
		c0.116,1.768,0.646,4.174,0.646,4.174s-2.701,2.705-3.813,3.791c-2.788,2.703-6.209,4.107-10.001,4.543
		c-7.034,0.801-12.686-2.696-14.466-8.855c-2.142-7.419,1.03-15.979,6.979-18.843c1.25-0.596,2.551-0.94,3.938-1.087
		c-0.039,0-0.072,0-0.083,0c0.019,0,0.07-0.005,0.167-0.017c-0.026,0.005-0.061,0.011-0.083,0.017
		c0.615-0.005,3.919,0.135,3.919,3.625l0.037,4.397l9.298,0.014v-16.58c0,0-3.445-0.434-7.123-0.75
		c-14.161-1.21-25.678,4.757-28.294,19.727c-1.789,10.224,1.595,19.876,8.635,24.271c9.22,5.764,24.55,4.135,32.253-3.531
		c0.736-0.729,1.814-1.71,1.814-1.71s0.91,0.915,1.562,1.646c6.745,7.473,18.408,9.239,27.267,4.385
		c8.237-4.519,12.577-15.031,10.778-26.12C297.101,286.715,294.161,280.627,287.315,277.395z M285.229,307.938
		c-1.555,3.494-4.4,5.408-8.245,5.479c-3.933,0.064-7.021-1.582-8.74-5.239c-3.028-6.399-3.072-12.85,0.249-19.136
		c1.738-3.297,4.345-4.63,7.993-4.656c4.126-0.25,7.012,1.73,8.681,5.279C288.018,295.692,287.932,301.863,285.229,307.938z"/>
</g>
</svg>
