<?xml version="1.0" encoding="iso-8859-1"?>
<!-- Generator: Adobe Illustrator 16.0.4, SVG Export Plug-In . SVG Version: 6.00 Build 0)  -->
<!DOCTYPE svg PUBLIC "-//W3C//DTD SVG 1.1//EN" "http://www.w3.org/Graphics/SVG/1.1/DTD/svg11.dtd">
<svg version="1.1" id="Layer_1" xmlns="http://www.w3.org/2000/svg" xmlns:xlink="http://www.w3.org/1999/xlink" x="0px" y="0px"
	 width="612px" height="563.5px" viewBox="0 0 612 563.5" style="enable-background:new 0 0 612 563.5;" xml:space="preserve">
<g>
	<rect x="184.538" y="269.401" width="9.604" height="36.302"/>
	<rect x="184.538" y="255.595" width="9.604" height="8.888"/>
	<path d="M232.213,272.65c-0.901-1.186-2.228-2.16-3.98-2.921c-1.758-0.765-3.691-1.148-5.811-1.148
		c-4.811,0-8.797,2.054-11.964,6.152v-5.332h-8.923v36.302h9.605V289.26c0-4.051,0.245-6.835,0.734-8.338s1.397-2.714,2.716-3.626
		c1.322-0.905,2.813-1.366,4.479-1.366c1.301,0,2.409,0.321,3.334,0.96c0.925,0.635,1.589,1.532,1.998,2.681
		c0.412,1.152,0.615,3.689,0.615,7.606v18.526h9.605v-22.559c0-2.809-0.18-4.958-0.531-6.461S233.114,273.836,232.213,272.65z"/>
	<path d="M258.781,282.937c-5.114-1.159-8.105-2.061-8.971-2.696c-0.641-0.479-0.96-1.06-0.96-1.742c0-0.798,0.366-1.451,1.098-1.95
		c1.094-0.709,2.903-1.056,5.434-1.056c2.004,0,3.551,0.373,4.631,1.122c1.082,0.754,1.816,1.835,2.202,3.25l9.062-1.677
		c-0.911-3.168-2.576-5.554-4.991-7.178c-2.415-1.618-6.107-2.427-11.074-2.427c-5.217,0-9.068,1.071-11.554,3.213
		c-2.483,2.146-3.723,4.785-3.723,7.928c0,3.489,1.434,6.209,4.306,8.17c2.075,1.41,6.982,2.975,14.731,4.684
		c1.661,0.392,2.734,0.81,3.214,1.271c0.452,0.479,0.684,1.077,0.684,1.805c0,1.074-0.422,1.931-1.267,2.566
		c-1.254,0.912-3.121,1.362-5.604,1.362c-2.256,0-4.01-0.479-5.267-1.451c-1.252-0.967-2.083-2.385-2.491-4.258l-9.641,1.471
		c0.891,3.441,2.774,6.171,5.659,8.171c2.88,2.01,6.794,3.014,11.738,3.014c5.443,0,9.56-1.197,12.338-3.592
		c2.779-2.395,4.172-5.252,4.172-8.578c0-3.055-1.005-5.437-3.01-7.146C267.469,285.521,263.896,284.103,258.781,282.937z"/>
	<path d="M291.283,298.554c-0.641,0-1.18-0.154-1.623-0.477c-0.445-0.312-0.729-0.722-0.854-1.211
		c-0.126-0.491-0.188-2.214-0.188-5.183V277.06h6.561v-7.658h-6.561v-12.818l-9.64,5.605v7.212h-4.409v7.658h4.409v15.826
		c0,3.39,0.101,5.653,0.308,6.765c0.251,1.574,0.698,2.826,1.352,3.74c0.647,0.924,1.667,1.678,3.057,2.258
		c1.39,0.582,2.951,0.877,4.684,0.877c2.827,0,5.354-0.48,7.588-1.438l-0.819-7.447
		C293.458,298.251,292.169,298.554,291.283,298.554z"/>
	<path d="M328.823,293.769l0.104-11.203c0-4.17-0.431-7.031-1.277-8.604c-0.86-1.555-2.33-2.843-4.432-3.854
		c-2.097-1.016-5.285-1.525-9.568-1.525c-4.716,0-8.271,0.842-10.665,2.529c-2.391,1.688-4.077,4.287-5.059,7.792l8.717,1.572
		c0.594-1.688,1.367-2.861,2.321-3.533c0.958-0.672,2.288-1.012,3.999-1.012c2.53,0,4.252,0.391,5.157,1.182
		c0.918,0.786,1.372,2.101,1.372,3.951v0.948c-1.732,0.735-4.843,1.521-9.331,2.36c-3.327,0.645-5.875,1.388-7.641,2.244
		c-1.766,0.854-3.141,2.083-4.119,3.688c-0.979,1.606-1.468,3.43-1.468,5.483c0,3.098,1.074,5.664,3.229,7.688
		c2.15,2.033,5.099,3.049,8.835,3.049c2.119,0,4.113-0.4,5.979-1.197c1.869-0.799,3.627-1.998,5.268-3.586
		c0.068,0.178,0.185,0.555,0.345,1.123c0.36,1.252,0.665,2.195,0.918,2.84h9.502c-0.839-1.731-1.418-3.356-1.722-4.871
		C328.978,299.311,328.823,296.966,328.823,293.769z M319.494,290.183c0,2.301-0.128,3.862-0.373,4.686
		c-0.367,1.255-1.132,2.312-2.295,3.179c-1.573,1.143-3.228,1.71-4.955,1.71c-1.55,0-2.827-0.495-3.831-1.47
		c-1.001-0.979-1.5-2.14-1.5-3.489c0-1.362,0.625-2.491,1.88-3.379c0.819-0.55,2.563-1.106,5.229-1.68
		c2.667-0.569,4.611-1.059,5.847-1.473L319.494,290.183L319.494,290.183z"/>
	<path d="M366.618,272.65c-0.896-1.186-2.229-2.16-3.979-2.921c-1.763-0.765-3.694-1.148-5.812-1.148
		c-4.809,0-8.795,2.054-11.963,6.152v-5.332h-8.922v36.302h9.604V289.26c0-4.051,0.247-6.835,0.735-8.338
		c0.492-1.503,1.396-2.714,2.719-3.626c1.32-0.905,2.812-1.366,4.477-1.366c1.298,0,2.409,0.321,3.333,0.96
		c0.927,0.635,1.591,1.532,2.005,2.681c0.406,1.152,0.612,3.689,0.612,7.606v18.526h9.602v-22.559c0-2.809-0.172-4.958-0.528-6.461
		S367.525,273.836,366.618,272.65z"/>
	<path d="M389.14,298.554c-0.64,0-1.179-0.154-1.625-0.477c-0.439-0.312-0.729-0.722-0.851-1.211
		c-0.125-0.491-0.194-2.214-0.194-5.183V277.06h6.564v-7.658h-6.564v-12.818l-9.641,5.605v7.212h-4.405v7.658h4.405v15.826
		c0,3.39,0.104,5.653,0.312,6.765c0.253,1.574,0.698,2.826,1.354,3.74c0.644,0.924,1.664,1.678,3.053,2.258
		c1.396,0.582,2.953,0.877,4.688,0.877c2.82,0,5.353-0.48,7.584-1.438l-0.819-7.447C391.312,298.251,390.027,298.554,389.14,298.554
		z"/>
	<path d="M472.307,272.957c-0.898-1.273-2.235-2.322-4.017-3.143c-1.778-0.819-3.774-1.233-5.982-1.233
		c-4.305,0-8.006,1.813-11.107,5.432v-18.418H441.6v50.108h9.601V287.52c0-3.06,0.292-5.364,0.877-6.923
		c0.574-1.562,1.492-2.732,2.744-3.501c1.255-0.775,2.684-1.166,4.271-1.166c1.396,0,2.548,0.307,3.474,0.908
		c0.925,0.602,1.564,1.418,1.929,2.444c0.366,1.026,0.551,3.438,0.551,7.24v19.181h9.604v-21.3c0-3.256-0.166-5.655-0.492-7.21
		C473.823,275.648,473.202,274.238,472.307,272.957z"/>
	<rect x="482.011" y="269.401" width="9.602" height="36.302"/>
	<rect x="482.011" y="255.595" width="9.602" height="8.888"/>
	<path d="M536.616,297.638c-1.688,0.613-2.979,0.916-3.862,0.916c-0.643,0-1.182-0.154-1.621-0.477
		c-0.448-0.312-0.729-0.722-0.854-1.211c-0.125-0.491-0.19-2.214-0.19-5.183V277.06h6.565v-7.658h-6.565v-12.818l-9.64,5.605v7.212
		h-3.465h-0.939h-6.231v-2.566c0-1.839,0.3-3.091,0.899-3.741c0.609-0.646,1.607-0.967,2.996-0.967c1.41,0,2.88,0.177,4.405,0.543
		l1.304-6.695c-2.622-0.819-5.303-1.233-8.033-1.233c-2.668,0-4.87,0.47-6.612,1.418c-1.745,0.945-2.938,2.168-3.595,3.671
		c-0.646,1.503-0.971,3.788-0.971,6.838v2.733h-5.33v7.555h5.33v28.747h9.604v-28.748h6.231v0.104h4.404v15.826
		c0,3.391,0.104,5.653,0.311,6.766c0.253,1.572,0.7,2.824,1.351,3.74c0.647,0.924,1.671,1.676,3.06,2.256
		c1.396,0.584,2.948,0.879,4.688,0.879c2.82,0,5.353-0.481,7.585-1.438L536.616,297.638z"/>
	<path d="M428.884,277.022l8.391-7.216h-3.15c-0.183-4.549-1.841-8.197-4.998-10.93c-3.178-2.758-7.911-4.136-14.198-4.136
		c-3.853,0-7.139,0.58-9.861,1.743c-2.723,1.159-4.812,2.854-6.257,5.074c-1.444,2.219-2.169,4.611-2.169,7.159
		c0,3.966,1.537,7.326,4.612,10.081c2.191,1.964,5.989,3.615,11.418,4.959c4.211,1.05,6.914,1.779,8.104,2.188
		c1.73,0.617,2.941,1.339,3.639,2.174c0.693,0.83,1.043,1.835,1.043,3.021c0,1.84-0.825,3.461-2.478,4.838
		c-1.653,1.377-4.108,2.062-7.367,2.062c-3.075,0-5.521-0.773-7.333-2.32c-1.604-1.375-2.697-3.474-3.348-6.217h3.481l-8.388-7.429
		l-8.393,7.429h3.216c0.664,5.546,2.688,9.782,6.063,12.688c3.391,2.928,8.257,4.394,14.592,4.394c4.354,0,7.986-0.607,10.9-1.822
		c2.915-1.224,5.177-3.084,6.77-5.593c1.598-2.507,2.396-5.198,2.396-8.067c0-3.164-0.664-5.826-2.001-7.979
		c-1.331-2.152-3.181-3.851-5.531-5.096c-2.365-1.24-6.003-2.444-10.925-3.604c-4.925-1.163-8.021-2.278-9.296-3.35
		c-1.007-0.838-1.503-1.854-1.503-3.042c0-1.304,0.531-2.334,1.604-3.109c1.663-1.211,3.966-1.813,6.903-1.813
		c2.851,0,4.982,0.569,6.408,1.691c1.312,1.045,2.186,2.732,2.655,5.003h-3.388L428.884,277.022z"/>
	<path d="M167.424,250.605l-38.921-22.469c-3.1-1.791-6.918-1.791-10.016,0l-38.92,22.469c-3.101,1.784-5.009,5.093-5.009,8.674
		v44.939c0,3.574,1.908,6.887,5.009,8.67l38.922,22.473c1.548,0.897,3.276,1.347,5.008,1.347c1.728,0,3.456-0.446,5.007-1.347
		l38.921-22.473c3.099-1.783,5.006-5.096,5.006-8.67v-44.939C172.43,255.698,170.522,252.39,167.424,250.605z M137.288,311.597
		c-5.554,0.879-6.646,1.354-10.634,0.94c-3.163-0.328-4.425-3.832-4.506-6.236c-0.232-7.43-0.222-14.889-0.078-22.344
		c0.138-6.982-0.766-8.549-7.603-6.133c0,0-26.687,11.865-29.943-1.533c0,0-1.69-6.535,6.179-13.861
		c0.905,0.62,2.02,1.576,2.836,2.403c6.545,6.617,14.261,8.242,23.25,5.901c3.313-0.864,6.69-1.563,10.083-1.998
		c8.389-1.078,9.992,2.592,8.308,10.908c-0.753,3.717-1.802,6.586-1.852,9.811C133.088,308.579,143.159,310.673,137.288,311.597z
		 M129.718,265.557c-4.032,0-7.304-3.271-7.304-7.304c0-4.036,3.271-7.312,7.304-7.312c4.034,0,7.308,3.275,7.308,7.312
		C137.025,262.285,133.753,265.557,129.718,265.557z"/>
</g>
</svg>
