<?xml version="1.0" encoding="utf-8"?>
<!-- Generator: Adobe Illustrator 16.0.0, SVG Export Plug-In . SVG Version: 6.00 Build 0)  -->
<!DOCTYPE svg PUBLIC "-//W3C//DTD SVG 1.1//EN" "http://www.w3.org/Graphics/SVG/1.1/DTD/svg11.dtd">
<svg version="1.1" id="Layer_1" xmlns="http://www.w3.org/2000/svg" xmlns:xlink="http://www.w3.org/1999/xlink" x="0px" y="0px"
	 width="100px" height="100px" viewBox="0 0 100 100" enable-background="new 0 0 100 100" xml:space="preserve">
<g>
	<path d="M62.595,45.994c0-11.062-9-20.062-20.062-20.062c-5.474,0-10.589,2.164-14.401,6.094c-0.062,0.063-0.112,0.136-0.153,0.214
		c-1.438,1.584-2.227,3.62-2.227,5.759c0,4.733,3.85,8.583,8.582,8.583c1.457,0,2.642,1.185,2.642,2.641
		c0,0.757-0.326,1.479-0.894,1.98c-0.054,0.047-0.101,0.1-0.142,0.157c-0.065,0.058-0.13,0.117-0.191,0.178
		c-0.03,0.026-0.059,0.054-0.086,0.084c-0.013,0.014-0.025,0.029-0.037,0.044c-1.479,1.595-2.292,3.661-2.292,5.827
		c0,4.188,2.996,7.742,7.124,8.451c0.518,0.089,0.995,0.132,1.46,0.132c0.17,0,0.337-0.011,0.505-0.023l-0.001-0.005
		c0.037,0.004,0.074,0.006,0.111,0.006C53.595,66.056,62.595,57.056,62.595,45.994z M42.281,64.06
		c-0.463,0.033-0.938,0.009-1.485-0.085c-3.165-0.543-5.462-3.269-5.462-6.48c0-1.676,0.637-3.276,1.793-4.505
		c0.004-0.003,0.008-0.007,0.012-0.011c0.049-0.052,0.104-0.099,0.158-0.147l0.151-0.136c0.051-0.047,0.096-0.1,0.134-0.156
		c0.889-0.871,1.394-2.066,1.394-3.316c0-2.559-2.082-4.641-4.642-4.641c-3.629,0-6.582-2.953-6.582-6.583
		c0-1.699,0.65-3.314,1.831-4.547c0.054-0.057,0.101-0.121,0.139-0.19c3.416-3.439,7.957-5.33,12.812-5.33
		c9.959,0,18.062,8.103,18.062,18.062c0,9.907-8.018,17.977-17.904,18.062c-0.076-0.013-0.156-0.017-0.235-0.012
		C42.454,64.044,42.282,64.06,42.281,64.06z"/>
	<path d="M34.721,32.677c-1.884,0-3.417,1.533-3.417,3.417s1.533,3.417,3.417,3.417s3.417-1.533,3.417-3.417
		S36.604,32.677,34.721,32.677z"/>
	<path d="M43.364,37.094c1.884,0,3.417-1.533,3.417-3.417s-1.533-3.417-3.417-3.417s-3.417,1.533-3.417,3.417
		S41.48,37.094,43.364,37.094z"/>
	<path d="M51.977,39.511c1.884,0,3.416-1.533,3.416-3.417s-1.532-3.417-3.416-3.417c-1.885,0-3.418,1.533-3.418,3.417
		S50.092,39.511,51.977,39.511z"/>
	<path d="M50.977,44.625c0,1.884,1.532,3.417,3.416,3.417c1.885,0,3.418-1.533,3.418-3.417s-1.533-3.417-3.418-3.417
		C52.509,41.208,50.977,42.74,50.977,44.625z"/>
	<path d="M51.977,56.901c1.884,0,3.416-1.533,3.416-3.417s-1.532-3.417-3.416-3.417c-1.885,0-3.418,1.533-3.418,3.417
		S50.092,56.901,51.977,56.901z"/>
	<path d="M40.247,53.428c-1.884,0-3.417,1.794-3.417,3.999s1.533,3.999,3.417,3.999s3.417-1.794,3.417-3.999
		S42.131,53.428,40.247,53.428z M40.247,59.426c-0.769,0-1.417-0.916-1.417-1.999s0.648-1.999,1.417-1.999s1.417,0.916,1.417,1.999
		S41.016,59.426,40.247,59.426z"/>
	<path d="M79.301,43.388c-0.232-0.232-0.564-0.335-0.886-0.277l-2.27,0.413c-0.187,0.034-0.359,0.12-0.498,0.248L57.94,60.065
		c-0.201,0.185-0.317,0.443-0.323,0.715c0,0.012,0.006,0.022,0.006,0.034c-0.021,0-0.041-0.011-0.062-0.01
		c-0.284,0.016-0.548,0.151-0.726,0.374l-5.687,7.1c-0.172,0.214-0.233,0.478-0.206,0.733c-0.44-0.153-0.902-0.25-1.382-0.25
		c-1.139,0-2.208,0.448-3.011,1.261c-0.557,0.563-1.304,2.954-2.219,7.107c-0.073,0.334,0.028,0.683,0.271,0.924
		c0.189,0.189,0.444,0.292,0.706,0.292c0.073,0,0.146-0.008,0.219-0.024l4.479-1.005c0.298-0.074,1.823-0.479,2.566-1.232
		c1.165-1.179,1.49-2.876,1.011-4.363c0.067,0.014,0.134,0.04,0.203,0.04c0.221,0,0.441-0.072,0.625-0.219l7.101-5.687
		c0.222-0.178,0.357-0.442,0.373-0.726c0.001-0.02-0.009-0.038-0.009-0.058c0.004,0,0.008,0.002,0.012,0.002
		c0.007,0,0.014,0,0.021,0c0.272-0.006,0.531-0.123,0.716-0.323l16.293-17.707c0.128-0.139,0.214-0.312,0.247-0.498l0.413-2.27
		C79.637,43.951,79.533,43.62,79.301,43.388z M51.149,74.677c-0.228,0.231-1.024,0.546-1.603,0.691l-2.907,0.652
		c0.515-2.146,1.097-4.229,1.334-4.593c0.424-0.43,0.988-0.667,1.588-0.667s1.164,0.237,1.588,0.667
		C52.034,72.324,52.034,73.781,51.149,74.677z M77.249,45.901L61.857,62.627l-1.796-1.796L76.788,45.44l0.563-0.103L77.249,45.901z"
		/>
</g>
</svg>
