<?xml version="1.0" encoding="utf-8"?>
<!-- Generator: Adobe Illustrator 16.0.4, SVG Export Plug-In . SVG Version: 6.00 Build 0)  -->
<!DOCTYPE svg PUBLIC "-//W3C//DTD SVG 1.1//EN" "http://www.w3.org/Graphics/SVG/1.1/DTD/svg11.dtd">
<svg version="1.1" id="Layer_1" xmlns="http://www.w3.org/2000/svg" xmlns:xlink="http://www.w3.org/1999/xlink" x="0px" y="0px"
	 width="612px" height="561.5px" viewBox="0 0 612 561.5" enable-background="new 0 0 612 561.5" xml:space="preserve">
<g>
	<path fill="#050505" d="M227.371,257.044c-3.648,0-7.138,2.141-10.472,6.424v-3.679c0-1.83-0.826-2.745-2.474-2.745
		c-1.695,0-2.541,0.824-2.541,2.471v48.821c0,1.647,0.812,2.471,2.44,2.471c1.718,0,2.574-0.821,2.574-2.463V290.95
		c3.157,3.61,6.649,5.417,10.472,5.417c5.158,0,9.227-2.014,12.207-6.033c2.669-3.611,4.002-8.06,4.002-13.328
		c0-5.356-1.357-9.933-4.069-13.732C236.487,259.124,232.439,257.044,227.371,257.044z M235.092,287.192
		c-1.909,3.215-4.486,4.825-7.729,4.825c-3.246,0-5.845-1.629-7.8-4.895c-1.778-2.902-2.666-6.437-2.666-10.591
		c0-4.105,0.866-7.546,2.599-10.315c1.91-3.13,4.533-4.69,7.867-4.69c3.288,0,5.887,1.586,7.799,4.758
		c1.688,2.813,2.532,6.271,2.532,10.39C237.695,280.829,236.83,284.338,235.092,287.192z"/>
	<path fill="#050505" d="M272.331,260.52c-2.452-2.227-5.393-3.342-8.824-3.342c-4.279,0-7.689,1.695-10.23,5.081v-13.83
		c0-1.745-0.826-2.617-2.477-2.617c-1.602,0-2.406,0.866-2.406,2.611v44.594c0,1.652,0.805,2.478,2.406,2.478
		c1.65,0,2.477-0.823,2.477-2.471V272.02c0-3.203,0.955-5.771,2.873-7.687c1.739-1.69,3.834-2.538,6.287-2.538
		c2.452,0,4.523,0.848,6.219,2.538c1.873,1.872,2.807,4.435,2.807,7.687v21.004c0,1.646,0.802,2.471,2.409,2.471
		c1.647,0,2.474-0.823,2.474-2.471v-23.138C276.343,266.048,275.005,262.93,272.331,260.52z"/>
	<path fill="#050505" d="M297.738,257.11c-5.124,0-9.181,2.032-12.167,6.089c-2.675,3.66-4.015,8.132-4.015,13.438
		c0,5.31,1.34,9.785,4.015,13.439c2.986,4.105,7.043,6.15,12.167,6.15c5.173,0,9.229-1.979,12.174-5.949
		c2.672-3.562,4.013-7.955,4.013-13.176c0-5.394-1.36-9.958-4.081-13.708C306.81,259.21,302.777,257.11,297.738,257.11z
		 M305.705,287.405c-1.909,2.983-4.578,4.479-7.997,4.479c-3.246,0-5.866-1.647-7.866-4.947c-1.778-3.033-2.666-6.619-2.666-10.768
		c0-4.009,0.845-7.353,2.531-10.03c1.909-3.031,4.575-4.551,8-4.551c3.199,0,5.8,1.678,7.798,5.014
		c1.865,3.082,2.801,6.717,2.801,10.909C308.305,281.475,307.438,284.776,305.705,287.405z"/>
	<path fill="#050505" d="M329.168,258.453c-1.694,0-2.786,0-3.274,0v-10.151c0-1.66-0.836-2.489-2.507-2.489
		c-1.672,0-2.51,0.83-2.51,2.489v10.151h-3.479c-1.513-0.049-2.271,0.689-2.271,2.202c0,1.52,0.804,2.275,2.403,2.275h3.347v30.094
		c0,1.646,0.812,2.471,2.438,2.471c1.717,0,2.577-0.823,2.577-2.471V262.93h3.41c1.646,0,2.474-0.744,2.474-2.238
		C331.775,259.197,330.906,258.453,329.168,258.453z"/>
	<path fill="#050505" d="M349.226,257.11c-5.124,0-9.183,2.032-12.167,6.089c-2.675,3.66-4.017,8.132-4.017,13.438
		c0,5.31,1.342,9.785,4.017,13.439c2.984,4.105,7.043,6.15,12.167,6.15c5.173,0,9.229-1.979,12.174-5.949
		c2.675-3.562,4.011-7.955,4.011-13.176c0-5.394-1.358-9.958-4.081-13.708C358.296,259.21,354.265,257.11,349.226,257.11z
		 M357.193,287.405c-1.913,2.983-4.576,4.479-7.998,4.479c-3.245,0-5.865-1.647-7.866-4.947c-1.776-3.033-2.666-6.619-2.666-10.768
		c0-4.009,0.847-7.353,2.531-10.03c1.909-3.031,4.578-4.551,8.001-4.551c3.199,0,5.799,1.678,7.796,5.014
		c1.867,3.082,2.806,6.717,2.806,10.909C359.795,281.475,358.926,284.776,357.193,287.405z"/>
	<path fill="#050505" d="M399.414,245.813c-1.721,0-2.572,0.873-2.572,2.617v14.903c-3.249-4.148-6.872-6.223-10.874-6.223
		c-4.804,0-8.65,2.105-11.539,6.297c-2.623,3.8-3.937,8.4-3.937,13.806c0,5.22,1.268,9.638,3.803,13.255
		c2.845,3.979,6.735,5.967,11.673,5.967c4.935,0,8.559-1.829,10.874-5.483v3.144c0,1.562,0.854,2.342,2.572,2.342
		c1.626,0,2.439-0.762,2.439-2.28v-45.733C401.854,246.679,401.04,245.813,399.414,245.813z M394.433,286.936
		c-2.101,3.031-4.907,4.546-8.43,4.546c-3.209,0-5.748-1.489-7.62-4.479c-1.696-2.678-2.541-5.973-2.541-9.9
		c0-4.007,0.867-7.417,2.606-10.225c1.869-3.123,4.391-4.68,7.555-4.68c3.521,0,6.31,1.514,8.357,4.539
		c1.873,2.77,2.81,6.155,2.81,10.17C397.171,280.829,396.26,284.174,394.433,286.936z"/>
	<path fill="#050505" d="M432.878,258.319c-1.604,0-2.405,0.823-2.405,2.471v21.597c0,2.901-0.957,5.246-2.873,7.026
		c-1.741,1.562-3.855,2.343-6.354,2.343c-2.404,0-4.459-0.781-6.15-2.343c-1.873-1.696-2.812-4.039-2.812-7.026V260.79
		c0-1.647-0.823-2.471-2.474-2.471c-1.604,0-2.406,0.823-2.406,2.471v23.205c0,5.125,2.406,8.736,7.22,10.828
		c4.505,1.916,9.007,1.897,13.512-0.065c4.812-2.094,7.22-5.681,7.22-10.763V260.79
		C435.352,259.142,434.527,258.319,432.878,258.319z"/>
	<path fill="#050505" d="M456.452,257.11c-4.712,0-8.269,1.94-10.669,5.82c0.046-0.488,0.046-1.629,0-3.41
		c-0.046-1.604-0.903-2.41-2.574-2.41c-1.629,0-2.438,0.758-2.438,2.275v33.639c0,1.646,0.812,2.471,2.438,2.471
		c1.719,0,2.574-0.823,2.574-2.471v-19.728c0-3.479,1.067-6.241,3.199-8.291c1.864-1.83,4.108-2.745,6.729-2.745
		c2.22,0,4.109,0.695,5.662,2.074c1.646,1.562,2.464,3.636,2.464,6.216v22.475c0,1.646,0.824,2.471,2.476,2.471
		c1.696,0,2.544-0.824,2.544-2.471v-23.006c0-4.057-1.29-7.266-3.867-9.626C462.63,258.209,459.786,257.11,456.452,257.11z"/>
	<path fill="#050505" d="M502.95,286.405c-0.537,0-1.409,0.487-2.617,1.471c-1.651,1.287-2.902,2.158-3.755,2.604
		c-1.736,0.982-3.527,1.471-5.36,1.471c-3.041,0-5.731-1.336-8.08-4.014c-2.348-2.672-3.519-5.588-3.519-8.754h24.271
		c1.162,0,1.741-1.808,1.741-5.424c0-5.124-1.387-9.193-4.146-12.201c-2.766-3.007-6.533-4.514-11.304-4.514
		c-5.036,0-9.05,2.056-12.033,6.155c-2.764,3.696-4.148,8.198-4.148,13.507c0,5.351,1.406,9.827,4.215,13.438
		c3.212,4.104,7.559,6.154,13.038,6.154c5.977,0,10.546-2.015,13.712-6.021c0.312-0.357,0.467-0.801,0.467-1.336
		c0-0.621-0.247-1.207-0.735-1.738C504.2,286.667,503.618,286.405,502.95,286.405z M483.038,264.803
		c2.016-2.05,4.431-3.074,7.247-3.074c2.818,0,5.188,1.024,7.11,3.074c2.145,2.275,3.218,5.375,3.218,9.297h-20.994
		C479.704,270.22,480.848,267.122,483.038,264.803z"/>
	<path fill="#050505" d="M200.062,257.837c-2.705,1.263-7.388,7.138-7.388,7.138c-0.491-0.153-1.174-0.238-1.958-0.274v-17.79
		c0-2.708-2.196-4.905-4.904-4.905h-22.746c-0.198-1.092-0.442-2.056-0.75-2.654c0,0,5.002-5.606,5.792-8.485
		c0,0-0.171-2.056-7.848,8.656l-0.007,2.483h-34.939c-2.709,0-4.905,2.196-4.905,4.905v12.836l-3.733,1.469
		c0,0-0.411,1.489,3.733,0.745v17.624c-4.12,4.789-10.096,11.835-10.73,13.152c-0.976,2.021-2.053,9.797-3.31,11.519
		c0,0,2.166,1.129,5.063-11.146l8.977-9.114v23.414c0,2.709,2.196,4.904,4.905,4.904h34.083l-10.441,12.4
		c-11.953,4.026-10.627,6.076-10.627,6.076c1.593-1.41,9.236-3.209,11.164-4.367c1.474-0.879,10.209-9.926,14.214-14.109h16.792
		c0.372,0.519,0.793,0.322,0.793,0.322l0.069-0.322h4.451c2.708,0,4.904-2.195,4.904-4.904v-40.008l2.129-0.372
		C202.117,257.66,200.062,257.837,200.062,257.837z M170.365,243.543c2.814-0.14,4.136-0.244,4.31,1.952c0,0-4.206-0.64-7.25,1.11
		C167.424,246.606,167.543,243.678,170.365,243.543z M131.26,295.958c-0.759-0.635-1.204-1.108-1.204-1.108
		c-0.229-0.515-0.437-1.015-0.641-1.515c-0.583-1.024-0.982-2.049-1.138-3.044c-8.604-25.604,11.999-32.021,24.396-34.553
		c0.231,1.61,1.369,7.54,6.024,12.366l-0.29-0.227l-21.815,33.259C134.735,299.606,132.804,297.825,131.26,295.958z
		 M143.204,305.938c0,0-3.045-1.886-6.391-4.624l26.064-29.91c3.495,2.093,8.159,3.489,14.405,3.361c0,0,0.024,0.427,0.056,0.183
		C177.325,287.436,175.943,314.321,143.204,305.938z M178.926,272.856c-22.873,0.469-24.664-19.448-24.664-19.448
		c9.672-2.989,15.096,1.079,18.78,3.776C180.735,262.827,178.926,272.856,178.926,272.856z M181.794,261.052
		c-0.988,3.429,2.681-1.08-14.897-11.334l0.195-0.482c0,0,6.543-2.117,11.441,1.8C182.846,254.487,182.779,257.624,181.794,261.052z
		 M184.833,259.063c1.101-3.331-0.366-7.327-0.366-7.327c2.19-0.269,2.346,1.044,2.779,3.831
		C187.677,258.355,184.833,259.063,184.833,259.063z"/>
</g>
</svg>
