<?xml version="1.0" encoding="utf-8"?>
<!-- Generator: Adobe Illustrator 16.0.4, SVG Export Plug-In . SVG Version: 6.00 Build 0)  -->
<!DOCTYPE svg PUBLIC "-//W3C//DTD SVG 1.1//EN" "http://www.w3.org/Graphics/SVG/1.1/DTD/svg11.dtd">
<svg version="1.1" id="Layer_1" xmlns="http://www.w3.org/2000/svg" xmlns:xlink="http://www.w3.org/1999/xlink" x="0px" y="0px"
	 width="612px" height="554.5px" viewBox="0 0 612 554.5" enable-background="new 0 0 612 554.5" xml:space="preserve">
<g>
	<path d="M238.594,243.607h-31.771v10.852h6.353v58.559h12.813v-23.953h12.606c13.002,0,22.091-9.376,22.091-22.872
		C260.685,252.697,251.596,243.607,238.594,243.607z M236.246,278.121h-10.259v-23.663h10.456c7.037,0,11.14,4.604,11.14,11.733
		C247.584,273.426,243.48,278.121,236.246,278.121z"/>
	<rect x="268.39" y="243.607" width="10.761" height="11.444"/>
	<path d="M280.123,300.402V269.81c0-4.59-1.945-6.657-6.543-6.657h-11.832v10.563h3.914c1.36,0,2.15,0.699,2.15,2.158v30.501
		c0,4.683,1.953,6.644,6.55,6.644h11.824v-10.458h-3.905C280.905,302.561,280.123,301.77,280.123,300.402z"/>
	<path d="M326.158,275.372c0.973-1.46,1.763-1.657,3.812-1.657h3.521v-10.562h-8.604c-4.202,0-5.856,0.882-8.105,4.696l-4.896,8.222
		c-0.684,1.262-1.563,3.222-1.563,3.222h-0.189c0,0-0.882-1.96-1.573-3.222l-4.879-8.222c-2.249-3.814-4.012-4.696-8.115-4.696
		h-8.693v10.563h3.617c2.052,0,2.826,0.197,3.807,1.657l8.215,12.431l-16.231,25.215h13.784l8.603-13.894
		c0.684-1.062,1.467-2.629,1.467-2.629h0.189c0,0,0.685,1.656,1.376,2.629l8.701,13.894h13.774l-16.33-25.215L326.158,275.372z"/>
	<path d="M360.361,261.981c-14.955,0-25.313,10.761-25.313,26.111c0,14.164,10.259,26.096,26.779,26.096
		c12.417,0,20.039-7.522,20.039-7.522l-5.19-8.603c0,0-5.958,5.562-13.968,5.562c-7.53,0-13.981-4.59-14.954-13.391h34.408
		c0,0,0.289-3.132,0.289-4.591C382.452,272.453,374.633,261.981,360.361,261.981z M348.149,281.634
		c1.36-6.261,5.859-10.061,12.214-10.061c5.084,0,9.188,4.104,9.385,10.061H348.149z"/>
	<path d="M435.722,300.402v-50.154c0-4.59-2.052-6.642-6.647-6.642h-11.832v10.563h3.922c1.357,0,2.143,0.685,2.143,2.144v8.799
		c0,1.672,0.101,2.934,0.101,2.934h-0.19c0,0-3.524-6.064-14.377-6.064c-13.191,0-22.676,10.274-22.676,26.112
		c0,15.426,8.691,26.096,22.188,26.096c11.438,0,15.532-8.117,15.532-8.117h0.213c0,0,0,0.775,0,1.855
		c0,2.945,1.649,5.092,6.147,5.092h11.442v-10.46h-3.82C436.496,302.561,435.722,301.77,435.722,300.402z M411.085,303.73
		c-7.325,0-12.317-6.17-12.317-15.639c0-9.878,5.668-15.441,12.518-15.441c8.312,0,12.311,7.614,12.311,15.333
		C423.594,299.035,417.545,303.73,411.085,303.73z"/>
	<path d="M468.944,261.981c-14.954,0-25.319,10.761-25.319,26.111c0,14.164,10.258,26.096,26.778,26.096
		c12.417,0,20.047-7.522,20.047-7.522l-5.185-8.603c0,0-5.958,5.562-13.98,5.562c-7.523,0-13.977-4.59-14.955-13.391h34.408
		c0,0,0.305-3.132,0.305-4.591C491.043,272.453,483.216,261.981,468.944,261.981z M456.718,281.634
		c1.376-6.261,5.874-10.061,12.229-10.061c5.074,0,9.193,4.104,9.386,10.061H456.718z"/>
	<path d="M548.788,302.561c-1.36,0-2.15-0.791-2.15-2.158v-19.453c0-13.192-6.353-18.968-17.399-18.968
		c-10.062,0-15.437,6.171-17.595,10.365h-0.188c0,0,0.188-1.078,0.188-2.143v-1.475c0-3.51-2.148-5.577-6.55-5.577h-11.438v10.563
		h3.914c1.375,0,2.148,0.699,2.148,2.158v37.146h12.318v-22.875c0-2.34,0.297-4.59,0.979-6.656
		c1.765-5.958,6.74-10.167,13.392-10.167c6.254,0,7.817,4.119,7.817,10.167v22.889c0,4.683,1.953,6.644,6.648,6.644h11.824v-10.459
		H548.788z"/>
	<path d="M80.955,229.489c0.296-0.122,0.585-0.243,0.877-0.365c0.612-0.274,1.254-0.456,1.881-0.668
		c0.448-0.152,0.908-0.259,1.364-0.365c0.585-0.152,1.167-0.304,1.759-0.425c0.756-0.137,1.516-0.243,2.292-0.35
		c0.577-0.061,1.17-0.152,1.755-0.137c0.281,0,0.555,0.015,0.829-0.015c1.368-0.137,2.75-0.076,4.119,0.045
		c1.079,0.106,2.158,0.228,3.222,0.456c0.844,0.198,1.688,0.38,2.523,0.608c0.942,0.273,1.869,0.577,2.781,0.942
		c0.744,0.289,1.481,0.593,2.203,0.927c0.897,0.411,1.718,0.958,2.569,1.429c0.509,0.304,1.011,0.608,1.52,0.912
		c1.018,0.577,2.036,1.155,3.055,1.748c0.745,0.426,1.459,0.867,2.196,1.292c0.836,0.486,1.679,0.957,2.515,1.443
		c0.904,0.532,1.809,1.063,2.72,1.58c0.882,0.518,1.793,0.973,2.66,1.521c0.995,0.623,2.028,1.186,3.055,1.778
		c1.345,0.774,2.675,1.564,4.042,2.325c0.889,0.501,1.748,1.048,2.629,1.565c0.988,0.563,1.976,1.109,2.964,1.687
		c1.132,0.653,2.257,1.322,3.381,1.976c1.315,0.76,2.637,1.521,3.959,2.28c0.608,0.334,1.231,0.684,1.832,1.049
		c0.691,0.425,1.413,0.79,2.105,1.23c0.699,0.44,1.452,0.821,2.181,1.231c0.569,0.334,1.147,0.684,1.717,1.033
		c1.117,0.639,2.242,1.292,3.359,1.945c0.205,0.122,0.326,0.289,0.326,0.532c0.023,0.912,0.061,1.778,0.076,2.675
		c0.046,2.568-0.038,5.137,0.061,7.705c0.084,2.128,0.031,4.24,0.076,6.368c0.061,2.249,0.016,4.514,0.016,6.763l0,0
		c0,1.777,0,3.541,0,5.318c0,0.639,0,1.277,0.007,1.916c0.007,0.41,0.16,0.5,0.524,0.318c0.266-0.139,0.501-0.334,0.775-0.473
		c0.791-0.396,1.543-0.865,2.325-1.293c1.041-0.562,2.06-1.187,3.101-1.748c0.942-0.5,1.839-1.062,2.766-1.58
		c1.261-0.697,2.508-1.428,3.777-2.109c0.995-0.549,1.968-1.143,2.896-1.811c0.858-0.624,1.679-1.275,2.484-1.976
		c0.935-0.806,1.816-1.672,2.622-2.6c0.653-0.775,1.276-1.55,1.854-2.386c0.433-0.639,0.836-1.276,1.216-1.931
		c0.334-0.607,0.654-1.216,0.95-1.854c0.38-0.775,0.691-1.596,0.996-2.432c0.137-0.365,0.22-0.745,0.334-1.125
		c0.152-0.456,0.304-0.912,0.395-1.383c0.137-0.669,0.274-1.338,0.38-2.006c0.137-0.821,0.197-1.611,0.22-2.432
		c0-0.168,0.008-0.335,0.023-0.502c0.091-0.654,0.076-1.322,0.03-1.961c-0.061-0.668-0.076-1.337-0.129-2.006
		c-0.023-0.304-0.061-0.623-0.137-0.928c-0.145-0.607-0.114-1.261-0.342-1.838c0-0.031,0-0.031,0-0.046
		c-0.015-0.578-0.266-1.109-0.402-1.672c-0.091-0.396-0.251-0.775-0.342-1.155c-0.167-0.653-0.418-1.276-0.654-1.885
		c-0.213-0.563-0.441-1.125-0.737-1.641c-0.441-0.775-0.844-1.566-1.27-2.341c-0.593-1.079-1.261-2.082-1.915-3.116
		c-0.684-1.094-1.421-2.173-2.219-3.191c-1.063-1.367-2.112-2.735-3.268-4.027c-0.684-0.76-1.368-1.521-2.067-2.265
		c-1.33-1.398-2.751-2.721-4.21-3.997c-1.094-0.958-2.211-1.854-3.359-2.735c-0.965-0.729-1.991-1.398-2.994-2.067
		c-0.562-0.38-1.109-0.76-1.679-1.109c-0.843-0.501-1.732-0.957-2.576-1.489c-0.912-0.563-1.87-1.049-2.827-1.52
		c-0.851-0.426-1.718-0.836-2.599-1.201c-0.76-0.289-1.482-0.638-2.227-0.973c-0.266-0.106-0.54-0.213-0.798-0.304
		c-0.38-0.137-0.745-0.243-1.125-0.38c-0.638-0.228-1.276-0.456-1.915-0.684c-0.707-0.243-1.429-0.411-2.143-0.638
		c-1.095-0.35-2.219-0.639-3.344-0.896c-1.475-0.335-2.979-0.593-4.476-0.852c-1.094-0.183-2.204-0.258-3.305-0.41
		c-0.988-0.137-1.983-0.167-2.979-0.228c-0.866-0.045-1.748-0.137-2.621-0.106c-0.213,0.015-0.411-0.015-0.616-0.091
		c-0.274-0.106-0.57-0.091-0.851,0c-0.106,0.046-0.221,0.091-0.334,0.091c-0.608,0-1.216,0.061-1.809,0.076
		c-0.699,0-1.383,0.092-2.082,0.106c-1.14,0.016-2.257,0.274-3.397,0.319c-0.235,0-0.471,0.03-0.699,0.076
		c-1.261,0.273-2.538,0.426-3.792,0.653c-0.995,0.198-1.976,0.41-2.956,0.669c-1.14,0.289-2.271,0.608-3.412,0.957
		c-0.646,0.183-1.292,0.396-1.93,0.624c-0.653,0.212-1.307,0.471-1.945,0.714c-0.601,0.228-1.193,0.486-1.778,0.729
		c-0.486,0.197-0.95,0.426-1.437,0.638c-0.699,0.289-1.391,0.608-2.059,0.942c-0.608,0.304-1.216,0.623-1.816,0.942
		c-0.783,0.396-1.527,0.852-2.303,1.277c-0.486,0.258-0.942,0.592-1.429,0.881c-0.79,0.441-1.55,0.912-2.291,1.429
		c-1.022,0.745-2.086,1.414-3.066,2.204c-0.771,0.623-1.6,1.186-2.333,1.854c-0.555,0.501-1.117,0.988-1.687,1.49
		c-0.057,0.045-0.125,0.091-0.175,0.151c-0.122,0.167-0.064,0.304,0.137,0.335C80.678,229.549,80.822,229.535,80.955,229.489z"/>
	<path d="M188.493,273.426c-0.03-0.623-0.197-1.246-0.183-1.884c0.008-0.396-0.015-0.791-0.106-1.171
		c-0.114-0.486-0.137-0.973-0.189-1.474c-0.038-0.365-0.122-0.715-0.183-1.079c-0.099-0.608-0.205-1.186-0.281-1.778
		c-0.076-0.578-0.327-1.141-0.289-1.732c0-0.031-0.008-0.062-0.015-0.076c-0.091-0.229-0.304-0.259-0.456-0.061
		c-0.099,0.105-0.106,0.258-0.137,0.395c-0.167,0.82-0.152,1.672-0.441,2.462c-0.007,0.016-0.007,0.046-0.007,0.046
		c-0.046,0.563-0.266,1.094-0.38,1.642c-0.061,0.304-0.099,0.593-0.213,0.882c-0.289,0.668-0.471,1.383-0.737,2.082
		c-0.273,0.729-0.577,1.459-0.904,2.173c-0.388,0.821-0.783,1.642-1.269,2.417c-0.289,0.471-0.532,0.973-0.851,1.413
		c-0.578,0.79-1.109,1.61-1.732,2.371c-1.064,1.292-2.174,2.521-3.427,3.63c-0.919,0.808-1.862,1.597-2.85,2.343
		c-0.661,0.5-1.367,0.911-2.082,1.336c-1.276,0.746-2.568,1.475-3.875,2.221c-0.988,0.549-1.976,1.109-2.964,1.674
		c-0.904,0.529-1.809,1.047-2.713,1.578c-2.021,1.154-4.05,2.312-6.072,3.479c-1.527,0.882-3.055,1.777-4.575,2.646
		c-0.653,0.381-1.299,0.762-1.945,1.141c-0.426,0.244-0.851,0.518-1.284,0.746c-0.57,0.287-1.125,0.605-1.68,0.926
		c-0.866,0.533-1.763,1.02-2.645,1.535c-1.192,0.699-2.416,1.354-3.617,2.053c-2.083,1.186-4.172,2.385-6.262,3.602
		c-1.109,0.654-2.219,1.322-3.359,1.945c-1.033,0.578-2.052,1.215-3.085,1.81c-1.034,0.592-2.09,1.17-3.131,1.776
		c-0.183,0.092-0.334,0.076-0.509-0.028c-0.6-0.351-1.201-0.699-1.801-1.05c-0.486-0.272-1.003-0.518-1.474-0.836
		c-0.517-0.334-1.064-0.606-1.589-0.928c-0.904-0.547-1.831-1.049-2.75-1.58c-0.935-0.531-1.862-1.063-2.789-1.611
		c-0.928-0.53-1.854-1.063-2.781-1.61c-0.745-0.41-1.49-0.836-2.219-1.246c-0.973-0.562-1.915-1.153-2.895-1.672
		c-0.874-0.485-1.726-1.002-2.576-1.504c-0.836-0.502-1.672-1.019-2.508-1.535c-1.026-0.623-2.067-1.229-3.085-1.869
		c-0.076-0.047-0.167-0.092-0.251-0.106c-0.281-0.074-0.448,0.047-0.403,0.352c0.091,0.67,0.03,1.338,0.03,1.992
		c0.031,2.535,0.015,5.061,0.015,7.584l0,0c0,2.566,0,5.119,0.008,7.674c0,0.213,0.022,0.426,0.038,0.623
		c0.045,0.623,0.228,1.217,0.213,1.84c-0.008,0.104,0.015,0.213,0.045,0.305c0.122,0.439,0.182,0.881,0.25,1.32
		c0.016,0.092,0.038,0.199,0.068,0.305c0.183,0.486,0.243,0.988,0.365,1.49c0.137,0.516,0.319,1.018,0.471,1.52
		c0.175,0.593,0.426,1.154,0.639,1.732c0.35,0.941,0.806,1.824,1.254,2.705c0.456,0.896,1.041,1.717,1.588,2.568
		c0.555,0.881,1.201,1.672,1.9,2.445c0.638,0.729,1.292,1.442,2.044,2.065c0.539,0.457,1.071,0.929,1.634,1.354
		c0.607,0.455,1.238,0.881,1.877,1.291c0.722,0.457,1.481,0.896,2.257,1.276c0.927,0.438,1.861,0.882,2.842,1.216
		c0.623,0.196,1.231,0.457,1.862,0.608c0.874,0.213,1.725,0.424,2.606,0.592c1.193,0.244,2.401,0.382,3.617,0.41
		c2.25,0.047,4.483,0.017,6.717-0.166c0.456-0.03,0.928-0.03,1.368-0.092c0.958-0.168,1.93-0.229,2.888-0.382
		c1.527-0.227,3.055-0.471,4.56-0.819c0.501-0.121,0.988-0.242,1.489-0.334c0.517-0.076,1.019-0.229,1.52-0.381
		c0.464-0.138,0.935-0.259,1.398-0.396c0.517-0.152,1.033-0.35,1.565-0.486c0.396-0.104,0.76-0.288,1.147-0.379
		c0.357-0.092,0.691-0.229,1.026-0.364c0.335-0.137,0.661-0.259,0.988-0.396c0.684-0.271,1.383-0.517,2.075-0.806
		c0.236-0.104,0.471-0.229,0.714-0.334c0.524-0.229,1.056-0.457,1.573-0.698c0.456-0.214,0.912-0.457,1.367-0.685
		c0.76-0.382,1.535-0.729,2.265-1.171c0.578-0.336,1.163-0.653,1.74-0.987c0.813-0.472,1.619-0.957,2.409-1.476
		c1.406-0.928,2.804-1.869,4.134-2.918c0.889-0.698,1.755-1.414,2.614-2.157c1.063-0.912,2.097-1.854,3.108-2.812
		c1.193-1.154,2.318-2.385,3.419-3.631c0.639-0.715,1.239-1.459,1.862-2.189c0.501-0.578,0.912-1.246,1.398-1.838
		c0.775-0.959,1.429-1.977,2.105-2.994c0.874-1.293,1.672-2.659,2.424-4.026c0.616-1.125,1.216-2.25,1.778-3.42
		c0.365-0.774,0.729-1.521,1.063-2.326c0.259-0.623,0.548-1.229,0.791-1.868c0.288-0.761,0.569-1.505,0.881-2.265
		c0.259-0.654,0.434-1.354,0.677-2.009c0.159-0.438,0.281-0.896,0.402-1.366c0.229-0.791,0.486-1.563,0.669-2.371
		c0.213-0.957,0.479-1.914,0.639-2.871c0.083-0.487,0.137-0.959,0.25-1.43c0.182-0.699,0.236-1.414,0.387-2.128
		c0.137-0.67,0.137-1.383,0.274-2.067c0.083-0.471,0.015-0.957,0.106-1.442c0.213-1.308,0.213-2.646,0.259-3.951
		c0.076-2.006-0.008-4.012-0.061-6.02C188.539,273.639,188.508,273.533,188.493,273.426z"/>
	<path d="M103.65,337.455c-0.927-0.668-1.755-1.459-2.561-2.25c-0.623-0.606-1.216-1.229-1.778-1.897
		c-0.791-0.942-1.55-1.899-2.227-2.948c-0.426-0.652-0.844-1.308-1.231-1.99c-0.357-0.64-0.707-1.293-1.025-1.943
		c-0.35-0.744-0.677-1.508-0.973-2.279c-0.243-0.609-0.502-1.232-0.677-1.871c-0.083-0.318-0.25-0.637-0.296-0.973
		c-0.076-0.562-0.335-1.078-0.426-1.656c-0.038-0.229-0.152-0.439-0.167-0.686c-0.068-0.684-0.243-1.353-0.327-2.051
		c-0.114-1.004-0.25-1.992-0.25-3.011c0-17.735,0-35.471,0-53.208c0-0.563,0.076-1.125,0.076-1.688c0-0.167,0.068-0.289,0.229-0.38
		c0.205-0.106,0.402-0.228,0.615-0.35c1.246-0.714,2.478-1.443,3.716-2.173c1.102-0.639,2.188-1.292,3.291-1.915
		c1.117-0.653,2.227-1.308,3.351-1.945c1.094-0.653,2.196-1.276,3.298-1.9c0.973-0.562,1.923-1.124,2.888-1.687
		c0.715-0.41,1.429-0.82,2.143-1.246c0.958-0.563,1.938-1.079,2.903-1.627c0.882-0.486,1.763-0.973,2.645-1.459
		c0.365-0.213,0.729-0.41,1.064-0.638c0.273-0.183,0.258-0.44-0.031-0.578c-0.189-0.106-0.357-0.228-0.547-0.319
		c-1.003-0.547-1.983-1.154-2.994-1.717c-0.82-0.456-1.626-0.942-2.447-1.398c-1.277-0.729-2.523-1.489-3.815-2.188
		c-1.565-0.882-3.085-1.823-4.681-2.646c-0.852-0.425-1.71-0.806-2.584-1.125c-0.631-0.228-1.254-0.501-1.922-0.623
		c-0.068-0.015-0.129-0.031-0.19-0.076c-0.198-0.122-0.426-0.182-0.669-0.182c-0.061,0-0.137,0-0.19-0.046
		c-0.25-0.152-0.555-0.137-0.828-0.197c-0.616-0.183-1.247-0.259-1.87-0.38c-0.44-0.091-0.874-0.167-1.322-0.152
		c-0.41,0-0.805-0.106-1.2-0.167c-0.745-0.106-1.49-0.091-2.234-0.076c-0.578,0.016-1.155-0.03-1.717,0.137
		c-0.038,0-0.076-0.015-0.122-0.015l0,0c-0.106,0-0.213,0-0.304,0.015c-0.589,0.091-1.182,0.106-1.771,0.106
		c-0.722,0-1.402,0.319-2.127,0.289c-0.038,0-0.08,0.015-0.11,0.03c-0.524,0.273-1.113,0.273-1.668,0.426
		c-0.444,0.137-0.904,0.258-1.345,0.41c-0.593,0.197-1.178,0.426-1.748,0.684c-0.737,0.334-1.479,0.654-2.177,1.079
		c-1.094,0.653-2.162,1.368-3.146,2.188c-1.026,0.882-1.953,1.824-2.861,2.813c-0.289,0.318-0.532,0.684-0.828,0.987
		c-0.43,0.486-0.81,1.003-1.151,1.55c-0.752,1.171-1.459,2.371-2.124,3.617c-0.676,1.262-1.326,2.539-1.953,3.83
		c-0.487,1.019-0.919,2.052-1.349,3.101c-0.103,0.228-0.231,0.456-0.315,0.714c-0.213,0.623-0.444,1.247-0.672,1.87
		c-0.22,0.638-0.414,1.261-0.646,1.869c-0.189,0.501-0.354,1.003-0.471,1.52c-0.099,0.44-0.251,0.866-0.365,1.292
		c-0.137,0.517-0.239,1.049-0.395,1.565c-0.167,0.517-0.178,1.079-0.38,1.596c-0.027,0.076-0.019,0.152-0.019,0.243
		c0,0.152-0.053,0.289-0.087,0.441c-0.164,0.774-0.308,1.55-0.459,2.31c0,0.016,0,0.03,0,0.046
		c-0.091,0.775-0.293,1.535-0.297,2.325c0,0.046-0.019,0.076-0.026,0.122c-0.103,0.395-0.159,0.79-0.163,1.2
		c-0.008,0.396-0.034,0.79-0.091,1.17c-0.164,1.064-0.22,2.128-0.217,3.207c0.004,1.885,0.008,3.769,0,5.669
		c-0.003,0.562,0.031,1.125,0.106,1.687c0.152,1.125,0.19,2.264,0.365,3.389c0.141,0.912,0.285,1.811,0.399,2.723
		c0.049,0.395,0.148,0.76,0.22,1.152c0.122,0.596,0.229,1.174,0.361,1.766c0.122,0.531,0.289,1.062,0.388,1.609
		c0.163,0.82,0.433,1.611,0.657,2.416c0.083,0.32,0.152,0.641,0.258,0.957c0.243,0.729,0.49,1.459,0.741,2.188
		c0.198,0.562,0.384,1.142,0.616,1.701c0.327,0.791,0.604,1.599,0.973,2.388c0.334,0.715,0.623,1.442,0.965,2.143
		c0.463,0.988,0.949,1.945,1.451,2.919c0.635,1.218,1.318,2.419,2.04,3.589c0.848,1.383,1.748,2.721,2.698,4.043
		c1.003,1.396,2.074,2.732,3.188,4.043c0.783,0.91,1.6,1.809,2.432,2.656c1.075,1.143,2.188,2.234,3.37,3.256
		c0.779,0.684,1.547,1.383,2.345,2.02c0.931,0.775,1.88,1.521,2.853,2.234c1.045,0.76,2.128,1.475,3.222,2.174
		c0.486,0.305,0.958,0.639,1.459,0.912c0.585,0.334,1.155,0.684,1.748,0.973c0.714,0.381,1.405,0.805,2.135,1.187
		c1.019,0.519,2.075,0.973,3.116,1.459c0.858,0.396,1.732,0.774,2.621,1.125c0.259,0.104,0.532,0.213,0.798,0.317
		c0.342,0.138,0.677,0.258,1.026,0.381c0.38,0.138,0.768,0.242,1.132,0.427c0.35,0.149,0.745,0.137,1.072,0.35
		c0.053,0.029,0.137,0,0.198,0c0.076,0,0.167-0.016,0.197-0.092c0.061-0.106-0.008-0.183-0.076-0.244
		C104.159,337.82,103.908,337.64,103.65,337.455z"/>
</g>
</svg>
