<?xml version="1.0" encoding="utf-8"?>
<!-- Generator: Adobe Illustrator 16.0.0, SVG Export Plug-In . SVG Version: 6.00 Build 0)  -->
<!DOCTYPE svg PUBLIC "-//W3C//DTD SVG 1.1//EN" "http://www.w3.org/Graphics/SVG/1.1/DTD/svg11.dtd">
<svg version="1.1" id="Layer_1" xmlns="http://www.w3.org/2000/svg" xmlns:xlink="http://www.w3.org/1999/xlink" x="0px" y="0px"
	 width="100px" height="100px" viewBox="0 0 100 100" enable-background="new 0 0 100 100" xml:space="preserve">
<g>
	<path d="M56.796,7.083c-0.174-0.026-0.337,0.007-0.489,0.064c-2.588-3.861-5.22-6.246-5.435-6.439
		c-0.22-0.195-0.498-0.268-0.769-0.24c-0.271-0.028-0.552,0.046-0.771,0.24c-0.213,0.19-2.784,2.523-5.34,6.301
		c-0.061-0.003-0.115-0.02-0.177-0.013C20.847,10.05,3.523,29.855,3.523,53.064c0,13.058,5.422,24.867,14.123,33.316
		c0.103,0.329,0.359,0.574,0.694,0.662C26.646,94.787,37.774,99.538,50,99.538c12.198,0,23.307-4.729,31.605-12.444h0.215
		c0.553,0,1-0.447,1-1c0-0.047-0.021-0.088-0.026-0.133c8.444-8.419,13.683-20.059,13.683-32.898
		C96.477,30.166,79.417,10.397,56.796,7.083z M64.134,45.773c-0.015,0.069-0.042,0.134-0.042,0.207c0,0.552,0.448,1,1,1h2.969
		v10.612h-0.244c-0.446-3.292-3.057-5.9-6.349-6.347v-23.92l2.624,2.624v15.618C64.092,45.641,64.119,45.705,64.134,45.773z
		 M74.249,57.593h-4.188v-9.198l4.188,4.189V57.593z M63.913,64.016c-0.425-0.371-0.897-0.682-1.417-0.918h3.396v0.918H63.913z
		 M44.987,66.016h1.173c0.552,0,1-0.447,1-1v-5.422h5.885v5.422c0,0.553,0.448,1,1,1h0.77c-0.219,0.489-0.394,1.004-0.469,1.553
		c-1.962-0.527-4.126,0.063-5.543,1.443c-0.88-1.297-2.264-2.205-3.826-2.476c0.015-0.146,0.021-0.293,0.021-0.44
		C44.998,66.068,44.988,66.043,44.987,66.016z M25.957,57.593v-5.009l4.188-4.189v9.198H25.957z M32.146,46.98h2.967
		c0.554,0,1-0.448,1-1c0-0.073-0.025-0.138-0.042-0.207c0.017-0.069,0.042-0.134,0.042-0.207V29.949l2.624-2.624v23.921
		c-3.292,0.447-5.899,3.055-6.347,6.347h-0.244V46.98z M45.383,8.588h3.72v7.7c-2.992,0.525-5.272,3.135-5.272,6.275
		c0,0.331,0.031,0.653,0.082,0.97h-3.175v-0.97C40.735,17.107,43.011,12.213,45.383,8.588z M59.468,25.535v25.711
		c-3.292,0.447-5.899,3.055-6.347,6.347h-1.915V28.855c2.015-0.319,3.718-1.58,4.64-3.321L59.468,25.535L59.468,25.535z
		 M65.893,61.096H55.045v-2.503c0-2.989,2.434-5.423,5.423-5.423c2.99,0,5.425,2.434,5.425,5.423V61.096z M47.085,57.593
		c-0.447-3.292-3.057-5.901-6.349-6.347V25.535h3.829c0.921,1.741,2.624,3.001,4.641,3.321v28.738L47.085,57.593L47.085,57.593z
		 M34.313,61.096v-2.503c0-2.989,2.435-5.423,5.423-5.423c2.99,0,5.425,2.434,5.425,5.423v2.503H34.313z M50.206,26.941
		c-2.414,0-4.377-1.963-4.377-4.377s1.964-4.377,4.377-4.377s4.377,1.964,4.377,4.377S52.619,26.941,50.206,26.941z M34.313,63.096
		h1.977c-0.226,0.285-0.419,0.59-0.576,0.92h-1.399L34.313,63.096L34.313,63.096z M40.112,63.212c0.772,0,1.472,0.31,1.988,0.804
		h-3.975C38.645,63.521,39.342,63.212,40.112,63.212z M43.938,63.096h1.223v0.92h-0.646C44.356,63.686,44.163,63.381,43.938,63.096z
		 M55.045,64.016v-0.918h2.678c-0.531,0.239-1.029,0.539-1.461,0.918H55.045z M59.468,23.535H56.5
		c0.049-0.317,0.082-0.639,0.082-0.97c0-3.211-2.389-5.868-5.479-6.307v-7.67h3.719c2.371,3.624,4.646,8.518,4.646,13.976V23.535
		L59.468,23.535z M50.103,2.744c0.692,0.691,1.944,2.021,3.316,3.846h-6.632C48.159,4.765,49.411,3.435,50.103,2.744z M50,97.538
		c-10.88,0-20.854-3.933-28.592-10.444h57.183C70.854,93.605,60.88,97.538,50,97.538z M80.809,85.094H19.19
		C10.775,76.998,5.523,65.636,5.523,53.064c0-21.713,15.848-40.306,37.095-43.855c-2.103,3.639-3.882,8.229-3.882,13.356v1.932
		l-4.331,4.331c-0.092,0.092-0.163,0.203-0.216,0.325c-0.051,0.122-0.077,0.252-0.077,0.382v15.446h-2.967
		c-0.13,0-0.26,0.027-0.382,0.077c-0.122,0.051-0.232,0.124-0.325,0.216l-6.188,6.188c-0.092,0.093-0.165,0.203-0.216,0.325
		c-0.053,0.122-0.077,0.252-0.077,0.382v6.423c0,0.553,0.446,1,1,1h7.356v5.424c0,0.551,0.448,1,1,1h1.924
		c0,0.025-0.008,0.053-0.008,0.078c0,0.854,0.224,1.682,0.639,2.409c-1.096,0.906-1.744,2.247-1.756,3.711
		c-1.651-0.188-3.294,0.201-4.676,1.083c-1.55-0.988-3.438-1.355-5.275-0.986c-0.937-2.811-3.502-4.789-6.513-4.935
		c-1.161-2.577-3.728-4.262-6.6-4.262c-0.552,0-1,0.446-1,1c0,0.552,0.448,1,1,1c2.259,0,4.257,1.44,4.973,3.586
		c0.144,0.426,0.554,0.702,0.999,0.682l0.274-0.015c2.556,0,4.728,1.828,5.163,4.348c0.05,0.291,0.227,0.545,0.48,0.694
		c0.256,0.147,0.564,0.177,0.844,0.075c1.743-0.631,3.625-0.297,5.032,0.822c0.364,0.289,0.879,0.289,1.243,0
		c1.385-1.101,3.229-1.438,4.943-0.854c0.357,0.12,0.76,0.029,1.027-0.24c0.271-0.271,0.362-0.669,0.24-1.029
		c-0.104-0.308-0.158-0.619-0.158-0.933c0-1.106,0.622-2.103,1.624-2.59c0.287-0.142,0.489-0.407,0.547-0.722
		c0.056-0.313-0.039-0.635-0.26-0.865c-0.512-0.539-0.793-1.242-0.793-1.98c0-0.025,0.007-0.053,0.008-0.078h5.753
		c0.003,0.026,0.01,0.053,0.01,0.079c0,0.343-0.063,0.686-0.188,1.017c-0.12,0.318-0.029,0.675,0.173,0.945
		c0.203,0.273,0.567,0.42,0.91,0.399L44,68.451c1.682,0,3.183,1.129,3.647,2.746c0.113,0.391,0.452,0.675,0.857,0.717
		c0.396,0.038,0.795-0.165,0.986-0.525c0.662-1.246,1.948-2.02,3.356-2.02c0.693,0,1.379,0.193,1.979,0.561
		c0.332,0.203,0.75,0.196,1.072-0.019c0.324-0.214,0.494-0.597,0.438-0.979c-0.025-0.185-0.047-0.371-0.047-0.563
		c0-0.893,0.32-1.704,0.84-2.354h5.926c0.516,0.647,0.84,1.461,0.84,2.354c0,0.719-0.207,1.422-0.597,2.033
		c-0.172,0.27-0.204,0.604-0.086,0.904c0.118,0.297,0.371,0.521,0.685,0.601c1.813,0.465,3.252,1.876,3.75,3.684
		c0.098,0.354,0.383,0.628,0.742,0.71c0.072,0.018,0.146,0.025,0.223,0.025c0.285,0,0.563-0.123,0.754-0.344
		c1-1.152,2.443-1.813,3.959-1.813c0.934,0,1.855,0.255,2.669,0.737c0.295,0.176,0.659,0.186,0.965,0.029
		c0.306-0.158,0.51-0.459,0.541-0.802c0.245-2.718,2.489-4.768,5.222-4.768c0.248,0,0.491,0.022,0.731,0.058
		c0.454,0.063,0.897-0.191,1.067-0.622c0.799-2.013,2.711-3.313,4.873-3.313c0.551,0,1-0.448,1-1c0-0.554-0.449-1-1-1
		c-2.73,0-5.176,1.501-6.416,3.883c-0.086-0.003-0.172-0.005-0.259-0.005c-3.301,0-6.088,2.169-6.96,5.228
		c-2.253-0.81-4.859-0.403-6.76,1.013c-0.756-1.434-1.979-2.578-3.461-3.239c0.232-0.64,0.355-1.313,0.355-2
		c0-0.839-0.183-1.636-0.504-2.354h1.502c0.551,0,1-0.449,1-1v-2.373c0.106-0.16,0.187-0.341,0.187-0.547
		c0-0.205-0.077-0.387-0.187-0.546v-1.957h7.357c0.553,0,1-0.448,1-1v-6.423c0-0.13-0.027-0.26-0.077-0.382
		c-0.051-0.122-0.124-0.233-0.216-0.325l-6.189-6.188c-0.092-0.092-0.203-0.165-0.324-0.216c-0.123-0.051-0.252-0.077-0.383-0.077
		h-2.967V29.535c0-0.13-0.027-0.26-0.076-0.382c-0.052-0.122-0.125-0.233-0.217-0.325l-4.33-4.331v-1.932
		c0-5.107-1.767-9.683-3.857-13.315c21.095,3.645,36.865,22.277,36.865,43.814C94.477,65.636,89.225,76.998,80.809,85.094z"/>
</g>
</svg>
