<?xml version="1.0" encoding="utf-8"?>
<!-- Generator: Adobe Illustrator 16.0.4, SVG Export Plug-In . SVG Version: 6.00 Build 0)  -->
<!DOCTYPE svg PUBLIC "-//W3C//DTD SVG 1.1//EN" "http://www.w3.org/Graphics/SVG/1.1/DTD/svg11.dtd">
<svg version="1.1" id="Layer_1" xmlns="http://www.w3.org/2000/svg" xmlns:xlink="http://www.w3.org/1999/xlink" x="0px" y="0px"
	 width="612px" height="587.5px" viewBox="0 0 612 587.5" enable-background="new 0 0 612 587.5" xml:space="preserve">
<g>
	<path d="M134.382,288.836c0-9.925-3.67-20.25-18.803-20.25c-6.235,0-12.165,1.738-16.26,4.396l2.05,5.93
		c3.472-2.249,8.28-3.681,12.879-3.681c10.121,0,11.242,7.362,11.242,11.454v1.021c-19.114-0.103-29.745,6.434-29.745,18.407
		c0,7.157,5.108,14.203,15.133,14.203c7.045,0,12.369-3.479,15.122-7.352h0.312l0.713,6.229h8.178
		c-0.612-3.375-0.821-7.566-0.821-11.859V288.836z M125.701,302.521c0,0.928-0.21,1.948-0.516,2.865
		c-1.433,4.19-5.522,8.291-11.961,8.291c-4.599,0-8.484-2.765-8.484-8.599c0-9.604,11.14-11.35,20.961-11.135V302.521z"/>
	<path d="M171.643,268.586c-8.529,0-14.68,3.574-18.57,9.611h-0.215l-0.431-8.49h-7.085l-0.051,16.161v45.853h8.433v-19.178h0.209
		c3.138,4.916,9.181,7.771,16.084,7.771c12.307,0,23.753-8.79,23.753-26.585C193.77,278.708,184.271,268.586,171.643,268.586z
		 M168.402,313.27c-6.802,0-12.522-4.305-14.255-10.534c-0.215-1.133-0.425-2.355-0.425-3.681v-8.483
		c0-1.235,0.323-2.561,0.646-3.683c1.834-6.748,7.877-11.144,14.357-11.144c10.041,0,15.546,8.48,15.546,18.393
		C184.271,305.489,178.438,313.27,168.402,313.27z"/>
	<path d="M313.41,290.205c-5.295-1.979-8.207-3.578-9.083-6.309l2.146-6.833c1.399-1.066,3.336-1.745,5.813-1.745
		c4.604,0,8.184,1.615,10.125,2.815l2.25-6.435c-2.76-1.614-7.154-3.02-12.166-3.02c-1.211,0-2.361,0.097-3.467,0.255l2.838-9.021
		c0.59-2.125-1.854-4.134-4.141-4.134h-54.206c-2.283,0-3.62,1.688-4.423,4.134l-5.947,18.899
		c-3.919-6.406-10.472-10.229-18.22-10.229c-8.529,0-14.68,3.574-18.565,9.611h-0.215l-0.43-8.49h-7.085l-0.051,16.161v45.853h8.433
		v-19.177h0.21c3.132,4.916,9.174,7.771,16.084,7.771c2.435,0,4.831-0.354,7.113-1.043l-2.09,6.66
		c-0.651,2.391,1.853,4.135,4.134,4.135h53.724c2.29,0,4.271-1.894,4.911-4.135l3.049-9.685c3.466,1.959,8.402,3.237,13.743,3.237
		c11.76,0,18.504-6.036,18.504-14.588C326.396,297.649,322.002,293.425,313.41,290.205z M221.696,313.27
		c-6.802,0-12.527-4.305-14.254-10.534c-0.215-1.133-0.425-2.355-0.425-3.681v-8.483c0-1.235,0.317-2.561,0.64-3.683
		c1.841-6.748,7.884-11.144,14.363-11.144c10.036,0,15.541,8.48,15.541,18.393c0,1.021-0.062,1.981-0.153,2.934l-2.945,9.368
		C231.776,310.721,227.428,313.27,221.696,313.27z M257.739,320.825l13.831-27.502l-15.28-6.265l23.963-22.028l-7.963,16.396
		l16.004,6.108L257.739,320.825z M308.094,312.94c-4.47,0-9.142-1.79-11.81-3.488l5.098-16.209c1.903,1.325,4.271,2.504,7.125,3.5
		c6.646,2.424,9.199,4.735,9.199,8.961C317.705,309.724,314.641,312.94,308.094,312.94z"/>
	<path d="M344.865,256.852l-8.795,0.035v11.857h-7.668v6.854h7.668v26.987c0,5.822,0.922,10.229,3.477,12.881
		c2.146,2.458,5.52,3.781,9.715,3.781c3.479,0,6.234-0.51,7.969-1.224l-0.402-6.751c-1.127,0.307-2.865,0.611-5.215,0.611
		c-5.014,0-6.746-3.478-6.746-9.604v-26.682h12.879v-6.854h-12.879L344.865,256.852L344.865,256.852z"/>
	<path d="M384.385,268.586c-13.699,0-24.533,9.714-24.533,26.276c0,15.644,10.324,25.452,23.715,25.452
		c11.961,0,24.643-7.976,24.643-26.27C408.207,278.911,398.596,268.586,384.385,268.586z M383.979,313.564
		c-8.799,0-15.031-8.179-15.031-19.008c0-9.412,4.598-19.22,15.229-19.22c10.639,0,14.828,10.635,14.828,19.016
		C399.004,305.489,392.557,313.564,383.979,313.564z"/>
	<path d="M423.135,279.42h-0.414l-0.305-9.712h-7.871c0.305,4.604,0.406,9.611,0.406,15.437v32.123h8.896v-24.454
		c0-1.529,0.203-2.969,0.406-4.191c1.23-6.748,5.723-11.551,12.064-11.551c1.229,0,2.145,0.103,3.066,0.306v-8.483
		c-0.812-0.203-1.533-0.307-2.559-0.307C430.797,268.586,425.383,272.778,423.135,279.42z"/>
	<path d="M500.006,268.586c-4.701,0-7.975,1.229-10.936,3.479c-2.045,1.535-3.994,3.681-5.521,6.438h-0.211
		c-2.145-5.827-7.254-9.917-14-9.917c-8.184,0-12.783,4.396-15.541,9.097h-0.307l-0.412-7.975h-7.867
		c0.301,4.09,0.408,8.28,0.408,13.397v34.162h8.791v-27.933c0-1.529,0.203-3.059,0.719-4.396c1.426-4.494,5.518-8.991,11.141-8.991
		c6.854,0,10.322,5.726,10.322,13.589v27.729h8.797v-28.646c0-1.632,0.309-3.272,0.713-4.497c1.529-4.392,5.521-8.175,10.633-8.175
		c7.254,0,10.73,5.726,10.73,15.232v26.086h8.789V290.06C516.254,272.879,506.547,268.586,500.006,268.586z"/>
</g>
</svg>
