<?xml version="1.0" encoding="utf-8"?>
<!-- Generator: Adobe Illustrator 16.0.4, SVG Export Plug-In . SVG Version: 6.00 Build 0)  -->
<!DOCTYPE svg PUBLIC "-//W3C//DTD SVG 1.1//EN" "http://www.w3.org/Graphics/SVG/1.1/DTD/svg11.dtd">
<svg version="1.1" id="Layer_1" xmlns="http://www.w3.org/2000/svg" xmlns:xlink="http://www.w3.org/1999/xlink" x="0px" y="0px"
	 width="288.665px" height="250.5px" viewBox="0 0 288.665 250.5" enable-background="new 0 0 288.665 250.5" xml:space="preserve">
<g>
	<g>
		<g>
			<path d="M162.892,131.985h-9.706l-2.332,7.092h-5.183l9.742-27.664h5.254l9.746,27.664h-5.188L162.892,131.985z M158.019,116.208
				c0,0-0.625,2.729-1.167,4.284l-2.453,7.4h7.243l-2.456-7.4c-0.508-1.562-1.089-4.284-1.089-4.284H158.019z"/>
		</g>
		<g>
			<path d="M177.854,111.419h8.921c2.999,0,4.363,0.231,5.566,0.783c2.77,1.24,4.522,3.896,4.522,7.557
				c0,3.312-1.753,6.385-4.676,7.564v0.079c0,0,0.388,0.386,0.938,1.365l5.688,10.321h-5.608l-5.495-10.324h-4.836v10.321h-5.023
				v-27.669h0.003V111.419z M187.396,124.392c2.688,0,4.362-1.597,4.362-4.363c0-2.648-1.127-4.284-5.063-4.284h-3.82v8.651
				L187.396,124.392L187.396,124.392z"/>
		</g>
		<g>
			<path d="M207.388,111.419h9.432c8.531,0,14.1,5.064,14.1,13.788c0,8.735-5.567,13.869-14.1,13.869h-9.432V111.419z
				 M216.547,134.754c5.611,0,9.189-3.31,9.189-9.547c0-6.15-3.666-9.465-9.189-9.465h-4.133v19.012H216.547L216.547,134.754z"/>
		</g>
		<g>
			<path d="M239.927,131.985c0,0,3,2.923,6.895,2.923c2.104,0,4.016-1.087,4.016-3.347c0-4.954-13.055-4.098-13.055-12.587
				c0-4.601,3.973-8.026,9.271-8.026c5.457,0,8.26,2.961,8.26,2.961l-2.183,4.094c0,0-2.657-2.414-6.123-2.414
				c-2.331,0-4.168,1.364-4.168,3.312c0,4.912,13.009,3.701,13.009,12.55c0,4.402-3.347,8.102-9.115,8.102
				c-6.154,0-9.543-3.774-9.543-3.774L239.927,131.985z"/>
		</g>
		<g>
			<path d="M106.19,111.419l-4.56,19.136c-0.349,1.558-0.465,2.918-0.465,2.918h-0.08c-0.041,0-0.08-1.324-0.507-2.918
				l-4.908-19.136h-4.363l-4.985,19.136c-0.431,1.591-0.467,2.918-0.507,2.918h-0.077c0,0-0.123-1.363-0.466-2.918l-3.265-14.329
				l-2.454,10.446l3.105,12.405h5.806l4.247-16.36c0.467-1.793,0.703-3.623,0.703-3.623h0.074c0,0,0.233,1.83,0.704,3.623
				l4.252,16.36h5.801l7.136-27.664L106.19,111.419L106.19,111.419z"/>
		</g>
		<g>
			<path d="M137.402,111.419l-4.562,19.136c-0.348,1.558-0.465,2.918-0.465,2.918h-0.082c-0.035,0-0.073-1.324-0.501-2.918
				l-4.913-19.136h-4.359l-4.987,19.136c-0.432,1.591-0.466,2.918-0.506,2.918h-0.08c0,0-0.117-1.363-0.466-2.918l-3.285-14.395
				l-2.454,10.447l3.129,12.473h5.803l4.245-16.361c0.467-1.793,0.705-3.623,0.705-3.623h0.077c0,0,0.234,1.83,0.702,3.623
				l4.25,16.361h5.803l7.135-27.661H137.402L137.402,111.419z"/>
		</g>
		<g>
			<path d="M34.417,131.985h-9.703l-2.337,7.092h-5.184l9.741-27.658h5.262l9.74,27.658h-5.183L34.417,131.985z M29.546,116.208
				c0,0-0.626,2.729-1.169,4.284l-2.455,7.4h7.247l-2.459-7.397c-0.504-1.56-1.091-4.287-1.091-4.287H29.546L29.546,116.208z"/>
		</g>
		<g>
			<path d="M69.368,130.552c0.428,1.594,0.465,2.919,0.503,2.919h0.079c0,0,0.12-1.367,0.467-2.919l4.559-19.139h5.183
				l-7.133,27.664h-5.803l-4.245-16.362c-0.466-1.792-0.705-3.622-0.705-3.622h-0.077c0,0-0.231,1.83-0.702,3.622l-4.248,16.361
				H51.44l-6.934-27.657h5.183l4.365,19.136c0.352,1.558,0.468,2.918,0.468,2.918H54.6c0.042,0,0.074-1.324,0.507-2.918
				l4.987-19.136h4.357L69.368,130.552z"/>
		</g>
	</g>
	<g>
		<path fill="#2E2D2D" d="M266.716,120.413c2.648,0,4.756,2.141,4.756,4.835c0,2.712-2.107,4.839-4.756,4.839
			c-2.6,0-4.699-2.126-4.699-4.839C262.017,122.556,264.117,120.413,266.716,120.413z M266.716,129.523
			c2.35,0,4.154-1.856,4.154-4.271c0-2.404-1.806-4.271-4.154-4.271c-2.309,0-4.102,1.872-4.102,4.271
			C262.615,127.67,264.41,129.523,266.716,129.523z M265.171,122.582h1.772c0.904,0,1.552,0.617,1.552,1.552
			c0,0.787-0.476,1.293-1.029,1.428v0.025c0,0,0.049,0.068,0.178,0.296l1.055,2.043h-0.656l-1.133-2.231h-1.152v2.231h-0.579
			L265.171,122.582L265.171,122.582z M266.88,125.183c0.615,0,1.014-0.395,1.014-1.051c0-0.641-0.398-1.021-1.014-1.021h-1.123
			v2.071L266.88,125.183L266.88,125.183z"/>
	</g>
</g>
</svg>
