<?xml version="1.0" encoding="iso-8859-1"?>
<!-- Generator: Adobe Illustrator 16.0.4, SVG Export Plug-In . SVG Version: 6.00 Build 0)  -->
<!DOCTYPE svg PUBLIC "-//W3C//DTD SVG 1.1//EN" "http://www.w3.org/Graphics/SVG/1.1/DTD/svg11.dtd">
<svg version="1.1" id="Capa_1" xmlns="http://www.w3.org/2000/svg" xmlns:xlink="http://www.w3.org/1999/xlink" x="0px" y="0px"
	 width="27.208px" height="10.566px" fill="#fff" viewBox="0 0 27.208 10.566" style="enable-background:new 0 0 27.208 10.566;"
	 xml:space="preserve">
<g>
	<path d="M3.925,0.146c-0.195-0.195-0.512-0.195-0.707,0c-0.195,0.195-0.195,0.512,0,0.707l4.43,4.429l-4.43,4.431
		c-0.195,0.195-0.195,0.512,0,0.707c0.098,0.098,0.226,0.146,0.354,0.146s0.257-0.049,0.354-0.146l5.137-5.138L3.925,0.146z"/>
	<path d="M0.854,0.146c-0.195-0.195-0.512-0.195-0.707,0c-0.195,0.195-0.195,0.512,0,0.707l4.428,4.429L0.146,9.713
		c-0.195,0.195-0.195,0.512,0,0.707c0.098,0.098,0.227,0.146,0.354,0.146s0.256-0.049,0.354-0.146L5.99,5.282L0.854,0.146z"/>
	<path d="M26.855,5.634l0.353-0.352l-5.137-5.136c-0.194-0.195-0.512-0.195-0.707,0c-0.194,0.195-0.194,0.512,0,0.707l3.931,3.93
		h-13.51c-0.045,0-0.085,0.015-0.126,0.025L6.997,0.146c-0.195-0.195-0.513-0.195-0.707,0c-0.195,0.195-0.195,0.512,0,0.707
		l4.43,4.429L6.29,9.713c-0.195,0.195-0.195,0.512,0,0.707c0.098,0.098,0.226,0.146,0.354,0.146s0.256-0.049,0.354-0.146l4.66-4.663
		c0.041,0.011,0.082,0.026,0.127,0.026h13.508l-3.928,3.93c-0.194,0.195-0.194,0.512,0,0.707c0.099,0.098,0.227,0.146,0.354,0.146
		s0.256-0.049,0.354-0.146l4.778-4.781C26.853,5.637,26.854,5.636,26.855,5.634z"/>
</g>
<g>
</g>
<g>
</g>
<g>
</g>
<g>
</g>
<g>
</g>
<g>
</g>
<g>
</g>
<g>
</g>
<g>
</g>
<g>
</g>
<g>
</g>
<g>
</g>
<g>
</g>
<g>
</g>
<g>
</g>
</svg>
