<?xml version="1.0" encoding="utf-8"?>
<!-- Generator: Adobe Illustrator 17.0.0, SVG Export Plug-In . SVG Version: 6.00 Build 0)  -->
<!DOCTYPE svg PUBLIC "-//W3C//DTD SVG 1.1//EN" "http://www.w3.org/Graphics/SVG/1.1/DTD/svg11.dtd">
<svg version="1.1" id="Capa_1" xmlns="http://www.w3.org/2000/svg" xmlns:xlink="http://www.w3.org/1999/xlink" x="0px" y="0px"
	 width="64px" height="64px" viewBox="0 0 64 64" enable-background="new 0 0 64 64" xml:space="preserve">
<g>
	<path d="M14.071,46.403c0,1.209,0.471,2.346,1.326,3.201s1.992,1.326,3.201,1.326c1.21,0,2.347-0.471,3.2-1.326l10.202-10.202
		L42.2,49.602c0.854,0.855,1.991,1.326,3.201,1.326s2.348-0.471,3.2-1.326c0.855-0.855,1.326-1.992,1.326-3.201
		s-0.471-2.346-1.326-3.201L38.402,33l10.201-10.201c0.855-0.855,1.326-1.992,1.326-3.201s-0.471-2.346-1.326-3.201
		c-0.854-0.855-1.991-1.326-3.201-1.326c-1.209,0-2.346,0.471-3.2,1.326L32.001,26.599L21.799,16.397
		c-0.854-0.855-1.991-1.326-3.2-1.326c-1.21,0-2.347,0.471-3.201,1.326c-0.855,0.855-1.326,1.992-1.326,3.201
		s0.471,2.346,1.326,3.201L25.6,33L15.397,43.202C14.542,44.057,14.071,45.194,14.071,46.403z M16.812,44.617l10.909-10.909
		c0.188-0.188,0.293-0.442,0.293-0.707s-0.105-0.52-0.293-0.707L16.812,21.385c-0.478-0.478-0.74-1.112-0.74-1.787
		s0.263-1.31,0.74-1.787c0.478-0.477,1.111-0.74,1.787-0.74c0.675,0,1.31,0.263,1.786,0.74L31.294,28.72
		c0.375,0.375,1.039,0.375,1.414,0l10.908-10.909c0.954-0.955,2.619-0.953,3.573,0c0.478,0.478,0.74,1.112,0.74,1.787
		s-0.263,1.31-0.74,1.787L36.281,32.293c-0.391,0.391-0.391,1.023,0,1.414l10.906,10.906c0.478,0.478,0.74,1.112,0.74,1.787
		s-0.263,1.309-0.741,1.787c-0.951,0.954-2.617,0.955-3.572,0L32.708,37.281c-0.391-0.391-1.023-0.391-1.414,0l-10.91,10.91
		c-0.951,0.954-2.617,0.955-3.572,0c-0.478-0.478-0.74-1.112-0.74-1.787S16.334,45.094,16.812,44.617z"/>
</g>
</svg>
