<?xml version="1.0" encoding="iso-8859-1"?>
<!-- Generator: Adobe Illustrator 16.0.4, SVG Export Plug-In . SVG Version: 6.00 Build 0)  -->
<!DOCTYPE svg PUBLIC "-//W3C//DTD SVG 1.1//EN" "http://www.w3.org/Graphics/SVG/1.1/DTD/svg11.dtd">
<svg version="1.1" id="Layer_1" xmlns="http://www.w3.org/2000/svg" xmlns:xlink="http://www.w3.org/1999/xlink" x="0px" y="0px"
	 width="612px" height="559.5px" viewBox="0 0 612 559.5" style="enable-background:new 0 0 612 559.5;" xml:space="preserve">
<g>
	<path d="M503.481,304.932c-1.197-1.104-2.607-1.953-4.232-2.554c-1.617-0.591-3.384-0.883-5.295-0.883
		c-1.917,0-3.687,0.292-5.312,0.883c-1.622,0.601-3.021,1.447-4.211,2.554c-1.182,1.105-2.104,2.438-2.773,4.008
		c-0.667,1.554-0.999,3.301-0.999,5.209c0,1.943,0.332,3.688,0.999,5.254c0.67,1.57,1.595,2.897,2.773,4.008
		c1.188,1.107,2.589,1.961,4.211,2.57c1.625,0.606,3.395,0.912,5.312,0.912c1.911,0,3.683-0.306,5.316-0.912
		c1.637-0.609,3.055-1.463,4.233-2.57c1.188-1.106,2.112-2.438,2.771-4.008c0.675-1.564,1.013-3.311,1.013-5.254
		c0-1.908-0.338-3.655-1.013-5.209C505.617,307.37,504.675,306.037,503.481,304.932z M496.654,316.665
		c-0.686,0.688-1.584,1.033-2.702,1.033c-1.124,0-2.031-0.346-2.714-1.033c-0.681-0.673-1.021-1.548-1.021-2.608
		c0-1.067,0.353-1.938,1.049-2.644c0.694-0.69,1.592-1.048,2.688-1.048c1.089,0,1.979,0.343,2.673,1.021
		c0.705,0.68,1.051,1.576,1.051,2.666C497.676,315.117,497.342,315.992,496.654,316.665z"/>
	<path d="M531.791,311.231c0-2.605-0.906-4.821-2.736-6.646l2.095-4.136l-7.369-3.533c-0.215,0-0.534,4.646-0.979,4.597
		c-0.439-0.041-0.896-0.096-1.366-0.133c-0.471-0.052-0.931-0.093-1.364-0.133c-0.438-0.052-0.771-0.074-0.979-0.074
		c-1.549,0-2.996,0.244-4.35,0.75c-1.346,0.498-2.535,1.207-3.563,2.119c-1.037,0.912-1.848,2.005-2.438,3.298
		c-0.594,1.292-0.892,2.71-0.892,4.261c0,4.338,1.944,7.4,5.823,9.188l-0.814,1.595c1.798-0.241,3.17-0.362,4.146-0.362
		c3.367,0,5.048,0.957,5.048,2.869c0,1.635-1.364,2.455-4.09,2.455c-1.739,0-3.62-0.427-5.647-1.273l-4.371,7.467
		c3.429,1.271,6.948,1.908,10.561,1.908c1.604,0,3.201-0.178,4.778-0.521c1.577-0.351,2.988-0.907,4.232-1.663
		c1.244-0.755,2.249-1.74,3.024-2.963c0.771-1.212,1.165-2.662,1.165-4.359c0-1.371-0.321-2.613-0.959-3.732
		c-0.64-1.126-1.659-2.235-3.048-3.323C530.427,316.938,531.791,314.396,531.791,311.231z M521.699,313.755
		c-0.474,0.476-1.094,0.705-1.854,0.705c-0.797,0-1.438-0.222-1.91-0.68c-0.471-0.454-0.706-1.057-0.706-1.82
		c0-0.757,0.235-1.377,0.706-1.843c0.474-0.47,1.113-0.712,1.91-0.712c0.764,0,1.383,0.246,1.854,0.732
		c0.471,0.486,0.711,1.094,0.711,1.819C522.41,312.692,522.17,313.29,521.699,313.755z"/>
	<path d="M113.131,248.156c-2.71-2.519-6.564-3.781-11.562-3.781c-3.495,0-6.646,0.646-9.44,1.937
		c-2.804,1.289-5.168,3.062-7.097,5.316s-3.417,4.859-4.474,7.839c-1.053,2.971-1.576,6.176-1.576,9.595
		c0,3.305,0.492,6.459,1.481,9.461c0.995,3.006,2.403,5.635,4.236,7.891c1.833,2.249,4.104,4.036,6.807,5.353
		c2.702,1.323,5.765,1.985,9.188,1.985c5.35,0,9.824-1.803,13.427-5.397v5.397l17.568-0.093v-69.359l-18.562,1.625v22.232H113.131
		L113.131,248.156z M111.089,274.325c-1.357,1.418-3.156,2.123-5.391,2.123c-2.236,0-4.036-0.705-5.396-2.123
		c-1.357-1.406-2.037-3.223-2.037-5.446c0-2.219,0.68-4.034,2.037-5.448c1.359-1.418,3.159-2.115,5.396-2.115
		c2.231,0,4.031,0.687,5.391,2.071c1.359,1.377,2.042,3.212,2.042,5.492C113.131,271.104,112.448,272.919,111.089,274.325z"/>
	<polygon points="153.44,238.862 153.461,224.054 135.817,224.054 135.865,238.833 	"/>
	<polygon points="135.297,293.209 153.858,293.188 153.858,244.375 135.297,244.375 	"/>
	<path d="M289.778,250.63c-2.371-2.191-5.166-3.867-8.381-5.043c-3.214-1.171-6.711-1.758-10.494-1.758
		c-3.78,0-7.28,0.587-10.496,1.758c-3.212,1.176-5.993,2.852-8.338,5.043c-2.339,2.201-4.172,4.84-5.494,7.931
		c-0.062,0.146-0.1,0.299-0.157,0.444c-0.726-3.423-2.371-6.441-4.976-9.054l4.145-8.194l-12.411-6.312l-2.187,8.562
		c-4.317-0.927-9.282-0.802-9.282-0.802c-3.062,0-5.932,0.495-8.604,1.481c-2.675,0.993-5.037,2.386-7.075,4.192
		c-1.76,1.548-3.176,3.397-4.291,5.507c-4.955-7.017-11.654-10.558-20.124-10.558c-3.785,0-7.289,0.587-10.5,1.758
		c-3.215,1.175-5.99,2.852-8.334,5.043c-2.343,2.201-4.178,4.838-5.496,7.931c-1.323,3.098-1.979,6.536-1.979,10.318
		c0,3.843,0.655,7.319,1.979,10.409c1.318,3.095,3.153,5.738,5.496,7.932c2.344,2.189,5.119,3.89,8.334,5.091
		c3.211,1.198,6.715,1.801,10.5,1.801c4.144,0,7.982-0.566,11.529-1.709s6.908-2.922,10.094-5.312l-8.107-13.88
		c-2.104,1.556-4.058,2.702-5.857,3.428c-1.805,0.717-3.515,1.077-5.136,1.077c-1.324,0-2.767-0.27-4.326-0.809l19.747-15.144
		c-0.063,0.683-0.104,1.364-0.104,2.069c0,8.599,3.841,14.66,11.535,18.208l-1.626,3.149c3.546-0.479,6.276-0.723,8.203-0.723
		c6.666,0,9.999,1.893,9.999,5.678c0,3.24-2.703,4.857-8.106,4.857c-3.426,0-7.149-0.838-11.178-2.521l-8.646,14.781
		c6.787,2.521,13.753,3.78,20.905,3.78c3.182,0,6.335-0.344,9.462-1.033c3.121-0.694,5.912-1.791,8.377-3.286
		c2.465-1.511,4.461-3.459,5.992-5.854c1.532-2.403,2.3-5.295,2.3-8.659c0-2.694-0.633-5.162-1.892-7.385
		c-1.263-2.221-3.276-4.413-6.041-6.573c2.648-1.883,4.639-4.063,5.985-6.514c0.248,2.718,0.866,5.232,1.854,7.544
		c1.322,3.095,3.155,5.738,5.494,7.932c2.345,2.189,5.126,3.89,8.338,5.091c3.216,1.198,6.716,1.801,10.496,1.801
		c3.783,0,7.304-0.603,10.543-1.801c3.242-1.201,6.035-2.898,8.385-5.091c2.341-2.192,4.171-4.837,5.495-7.932
		c1.32-3.09,1.979-6.568,1.979-10.409c0-3.784-0.659-7.223-1.979-10.318C294.002,255.47,292.152,252.831,289.778,250.63z
		 M173.502,269.062c-0.48-1.139-0.723-2.188-0.723-3.156c0-2.456,0.723-4.424,2.16-5.897c1.445-1.47,3.395-2.216,5.855-2.216
		c1.865,0,3.521,0.698,4.959,2.083L173.502,269.062z M226.879,268.111c-0.939,0.938-2.17,1.398-3.685,1.398
		c-1.574,0-2.836-0.45-3.773-1.349c-0.938-0.905-1.405-2.104-1.405-3.606c0-1.499,0.467-2.716,1.405-3.647
		c0.938-0.931,2.199-1.396,3.773-1.396c1.515,0,2.743,0.482,3.685,1.438c0.937,0.964,1.408,2.164,1.408,3.604
		S227.815,267.188,226.879,268.111z M276.269,273.883c-1.354,1.353-3.141,2.026-5.363,2.026c-2.221,0-4.008-0.676-5.358-2.026
		c-1.353-1.352-2.026-3.078-2.026-5.185c0-2.102,0.688-3.844,2.072-5.222c1.381-1.387,3.15-2.079,5.312-2.079
		s3.936,0.68,5.319,2.031c1.385,1.354,2.072,3.104,2.072,5.27C278.297,270.805,277.619,272.531,276.269,273.883z"/>
	<path d="M351.098,243.467c-4.802,0-8.735,1.719-11.801,5.146c-3.186-3.427-6.847-5.146-10.989-5.146
		c-5.709,0-10.247,2.473-13.606,7.395v-6.938l-17.123,1.447v48.295l18.566,0.041v-29.234c0-2.647,1.062-3.975,3.189-3.975
		c2.078,0,3.115,1.325,3.115,3.975v29.191l18.557,0.041v-29.232c0-2.647,1.038-3.975,3.109-3.975c2.129,0,3.2,1.325,3.2,3.975
		v29.191l18.562,0.041v-33.021c0-5.524-1.257-9.782-3.781-12.751C359.572,244.959,355.905,243.467,351.098,243.467z"/>
	<polygon points="532.192,239.239 532.216,224.332 514.573,224.328 514.625,239.106 	"/>
	<path d="M514.459,244.283v12.159c-5.062-8.371-12.193-12.613-21.438-12.613c-3.785,0-7.293,0.587-10.506,1.758
		c-3.212,1.176-5.986,2.852-8.33,5.043c-2.349,2.201-4.178,4.84-5.498,7.931c-1.315,3.098-1.979,6.536-1.979,10.318
		c0,2.962,0.403,5.694,1.182,8.212c-0.378,0.051-0.768,0.074-1.182,0.074c-2.886,0-4.325-1.495-4.325-4.505v-11.892h5.403v-14.684
		h-5.403v-14.42l-18.384,8.113v6.307h-2.437l-0.451,2.31v-2.31h-5.404v-14.42l-18.377,8.113v6.307h-2.437l-2.129,10.834
		c-0.521-4.233-1.963-7.382-4.337-9.395c-3.054-2.58-8.278-3.877-15.704-3.877c-5.045,0-10.781,0.665-17.208,1.99l-3.512,12.88
		c5.462-1.739,10.029-2.614,13.696-2.614c5.814,0,8.735,1.953,8.735,5.854v2.797c-3.411-2.278-7.066-3.42-10.96-3.42
		c-5.022,0-9.113,1.45-12.255,4.363c-3.145,2.917-4.716,6.688-4.716,11.312c0,4.921,1.514,8.933,4.544,12.028
		c3.041,3.097,6.931,4.64,11.67,4.64c4.383,0,8.653-1.771,12.795-5.312v5.312l17.49-1.354v-31.355h4.32v16.137
		c0,5.764,1.438,9.984,4.325,12.658c2.88,2.677,7.439,4.01,13.693,4.01c1.146,0,1.992,0,2.565,0c0.564,0,1.151-0.063,1.762-0.186
		l2.965-16.576c-0.771,0.234-1.646,0.354-2.604,0.354c-2.887,0-4.332-1.495-4.332-4.505v-11.892h2.979h2.429h2.888v16.137
		c0,5.764,1.444,9.984,4.325,12.658c0.61,0.562,1.325,1.067,2.094,1.518h-7.476v35.857h8.217l0.611-0.953
		c1.552,0.729,3.341,1.102,5.345,1.102c6.979,0,11.354-6.104,11.354-11.761c0-5.673-1.917-13.825-11.354-13.825
		c-2.622,0-4.206,0.396-5.345,0.923v-10.658c2.67,1.194,6.076,1.811,10.247,1.811c1.146,0,1.998,0,2.564,0
		c0.574,0,1.159-0.062,1.762-0.186l2.477-13.821c1.312,2.973,3.098,5.521,5.362,7.653c1.179,1.103,2.47,2.084,3.872,2.932
		l-8.276-0.023v35.47l9.376,0.104v-34.946c1.069,0.572,2.18,1.111,3.358,1.557c3.213,1.201,6.722,1.803,10.506,1.803
		c4.146,0,7.981-0.568,11.528-1.711c3.481-1.117,6.781-2.857,9.909-5.19v6l18.566-1.354v-47.488L514.459,244.283z M393.363,279.439
		c-0.847,0.83-1.871,1.244-3.065,1.244c-1.325,0-2.374-0.386-3.161-1.159c-0.772-0.77-1.17-1.842-1.17-3.209
		c0-1.314,0.396-2.366,1.17-3.164c0.787-0.813,1.836-1.207,3.161-1.207c1.263,0,2.295,0.395,3.105,1.207
		c0.812,0.798,1.215,1.85,1.215,3.164C394.618,277.562,394.201,278.605,393.363,279.439z M456.5,310.391
		c2.118,0,3.908,1.789,3.908,3.899c0,2.116-1.79,3.906-3.908,3.906c-2.11,0-3.896-1.79-3.896-3.906
		C452.604,312.18,454.39,310.391,456.5,310.391z M484.186,265.903c0-2.456,0.727-4.424,2.163-5.897
		c1.44-1.47,3.395-2.216,5.858-2.216c1.865,0,3.512,0.698,4.957,2.083l-12.255,9.188
		C484.427,267.923,484.186,266.874,484.186,265.903z M506.529,273.207c-2.104,1.556-4.054,2.702-5.854,3.427
		c-1.802,0.718-3.512,1.078-5.135,1.078c-1.325,0-2.769-0.27-4.327-0.809l23.245-17.828v27.689L506.529,273.207z"/>
</g>
</svg>
