<?xml version="1.0" encoding="utf-8"?>
<!-- Generator: Adobe Illustrator 16.0.4, SVG Export Plug-In . SVG Version: 6.00 Build 0)  -->
<!DOCTYPE svg PUBLIC "-//W3C//DTD SVG 1.1//EN" "http://www.w3.org/Graphics/SVG/1.1/DTD/svg11.dtd">
<svg version="1.1" id="Layer_1" xmlns="http://www.w3.org/2000/svg" xmlns:xlink="http://www.w3.org/1999/xlink" x="0px" y="0px"
	 width="612px" height="562.5px" viewBox="0 0 612 562.5" enable-background="new 0 0 612 562.5" xml:space="preserve">
<g>
	<path d="M119.896,243.631c-41.068,44.199-52.96,75.675-52.96,75.675c8.919,10.351,24.122,9.479,24.122,9.479
		c16.024,0.5,25.837-9.436,25.837-9.436c19.912-20.056,17.46-77.019,17.46-77.019C130.331,233.568,119.896,243.631,119.896,243.631z
		"/>
	<path d="M56.542,278.195c0,0-6.282,12.564,4.088,33.705l27.56-60.578C87.875,251.435,63.333,259.998,56.542,278.195z"/>
	<path d="M435.945,315.089c-1.693,0.145-3.366,0.145-5.02-0.3c-2.759-0.715-4.424-2.442-4.924-5.261
		c-0.271-1.572-0.186-3.116,0.1-4.659c0.786-4.375,1.608-8.749,2.432-13.123c1.466-7.947,2.952-15.909,4.432-23.857
		c0.051-0.357,0.15-0.715,0.229-1.086c7.317,0,14.564,0,21.799,0c0.887-1.815,4.453-10.707,4.489-11.235c-1.365,0-2.737,0-4.104,0
		c-1.387,0-2.759,0-4.124,0c-1.38,0-2.752,0-4.139,0c-1.353,0-2.737,0-4.124,0c-1.353,0-2.737,0-4.109,0
		c-1.364,0-2.723,0.028-4.188-0.015c1.442-7.347,2.857-14.608,4.272-21.856c-0.036,0-0.086,0-0.121,0
		c-0.113,0.085-0.215,0.186-0.336,0.229c-1.58,0.8-3.157,1.572-4.746,2.358c-3.395,1.672-6.781,3.359-10.185,5.018
		c-0.386,0.2-0.558,0.443-0.587,0.843c-0.05,0.429-0.121,0.844-0.188,1.272c-0.557,3.502-1.105,7.004-1.665,10.507
		c-0.521,3.259-1.044,6.518-1.551,9.763c-0.551,3.487-1.106,6.976-1.644,10.449c-0.522,3.245-1.022,6.489-1.53,9.72
		c-0.571,3.544-1.129,7.076-1.679,10.606c-0.529,3.244-1.029,6.489-1.545,9.722c-0.192,1.155-0.442,2.301-0.508,3.459
		c-0.137,2.215,0.063,4.389,0.587,6.53c1.222,4.989,4.229,8.421,9.067,10.207c2.366,0.888,4.832,1.259,7.341,1.345
		c2.304,0.086,4.59-0.059,6.861-0.399c1.188-0.157,2.387-0.399,3.604-0.615c0.851-3.631,1.692-7.23,2.564-10.904
		c-0.271,0.057-0.422,0.086-0.571,0.129C440.105,314.476,438.039,314.918,435.945,315.089z"/>
	<path d="M556.29,258.455c-0.5-0.043-0.808,0.143-1.087,0.571c-2.008,3.073-4.052,6.132-6.074,9.177
		c-0.105,0.144-0.215,0.271-0.372,0.486c-0.079-0.258-0.148-0.429-0.2-0.601c-0.521-1.715-1.034-3.416-1.563-5.117
		c-0.399-1.315-0.809-2.616-1.215-3.945c-0.06-0.214-0.128-0.429-0.414-0.429c-0.572,0.015-1.139,0.015-1.759,0.015
		c-1,4.302-1.986,8.604-2.98,12.95c0.688,0,1.287,0,1.951,0c0.701-2.759,1.399-5.518,2.095-8.276
		c0.05-0.015,0.102-0.015,0.149-0.015c0.83,2.845,1.649,5.689,2.495,8.563c0.448,0,0.879-0.014,1.312,0.015
		c0.396,0.015,0.65-0.114,0.887-0.472c1.665-2.502,3.366-4.988,5.067-7.49c0.1-0.157,0.229-0.314,0.336-0.472
		c0.05,0.015,0.101,0.015,0.129,0.043c-0.222,2.687-0.437,5.389-0.648,8.119c0.722,0,1.351,0,2.016,0
		c0.007-0.129,0.028-0.2,0.05-0.271c0.257-3.674,0.5-7.333,0.75-10.993c0.021-0.171,0.086-0.343,0.129-0.528c0-0.443,0-0.9,0-1.358
		C557.005,258.455,556.647,258.498,556.29,258.455z"/>
	<path d="M388.816,253.094c-3.244-0.257-6.477-0.199-9.691,0.201c-4.445,0.571-8.705,1.786-12.793,3.602
		c-5.211,2.33-9.863,5.504-14.195,9.191c-3.638,3.116-6.811,6.633-9.291,10.735c-4.545,7.52-6.84,15.608-6.237,24.442
		c0.229,3.373,0.941,6.646,2.235,9.776c3.03,7.263,8.154,12.336,15.683,14.853c1.027,0.344,2.087,0.658,3.149,0.787
		c2.64,0.301,5.275,0.258,7.912-0.072c4.031-0.514,7.834-1.743,11.352-3.787c5.323-3.102,9.283-7.49,11.956-13.021
		c0.095-0.201,0.192-0.371,0.278-0.56c0.043,0.015,0.086,0.029,0.129,0.043c-1.144,5.218-2.287,10.437-3.443,15.683
		c4.432,0,8.806,0,13.216,0c3.959-21.871,7.911-43.714,11.864-65.612c-0.771-0.357-1.479-0.687-2.201-0.986
		C402.36,255.61,395.778,253.666,388.816,253.094z M395.242,270.276c-0.665,6.876-2.366,13.537-4.26,20.169
		c-1.908,6.66-5.41,12.351-10.187,17.281c-2.771,2.873-5.961,5.188-9.742,6.604c-2.149,0.813-4.364,1.243-6.668,1.229
		c-1.271-0.016-2.544,0.043-3.772-0.345c-5.305-1.614-8.729-5.116-10.351-10.362c-0.655-2.172-0.836-4.433-0.687-6.689
		c0.301-4.531,1.688-8.748,3.564-12.85c0.708-1.545,1.503-3.088,2.347-4.589c1.036-1.802,2.395-3.374,3.857-4.832
		c5.411-5.403,11.864-8.905,19.362-10.421c5.389-1.057,10.721-0.771,15.931,1.072c0.25,0.101,0.493,0.187,0.838,0.314
		C395.399,268.018,395.35,269.146,395.242,270.276z"/>
	<path d="M516.008,260.299c-5.453-4.646-11.854-6.947-18.968-7.376c-5.075-0.3-10.071,0.357-14.881,2.044
		c-12.343,4.316-21.441,12.351-27.195,24.072c-2.649,5.36-3.959,11.062-4.009,16.824c0.014,2.744,0.229,5.246,0.821,7.705
		c2.266,9.434,7.684,16.381,16.46,20.584c5.468,2.615,11.283,3.43,17.311,2.973c3.924-0.286,7.733-1.172,11.407-2.571
		c6.532-2.459,12.186-6.263,17.032-11.279c4.831-4.976,8.419-10.721,10.556-17.323c2.059-6.333,2.608-12.794,1.151-19.341
		C524.249,270.119,521.062,264.644,516.008,260.299z M507.668,300.209c-3.479,5.66-8.191,9.991-14.237,12.793
		c-3.417,1.572-7.019,2.39-10.783,2.287c-7.784-0.214-14.123-4.846-16.477-12.551c-0.894-2.916-1.106-5.903-0.793-8.934
		c0.793-7.393,4.002-13.608,9.119-18.913c3.295-3.431,7.162-6.032,11.65-7.677c3.192-1.172,6.495-1.744,9.896-1.387
		c7.233,0.772,12.229,4.546,14.902,11.322c0.972,2.473,1.32,5.06,1.337,7.791C512.191,290.402,510.576,295.52,507.668,300.209z"/>
	<path d="M204.391,270.662c-0.129-1.458-0.265-2.902-0.687-4.303c-1.587-5.289-4.867-9.063-10.006-11.178
		c-2.416-1.001-4.938-1.487-7.533-1.645c-3.267-0.199-6.504,0.115-9.713,0.787c-5.468,1.143-10.578,3.201-15.388,6.003
		c-5.346,3.103-10.071,6.99-13.937,11.836c-2.83,3.545-5.018,7.433-6.318,11.793c-0.558,1.858-0.865,3.745-1.129,5.66
		c-0.271,1.986-0.601,3.96-0.722,5.976c-0.229,3.816,0.021,7.576,1.051,11.266c1.944,7.019,6.118,12.25,12.679,15.479
		c3.638,1.787,7.519,2.659,11.528,3.002c3.581,0.303,7.133,0.115,10.671-0.371c4.109-0.586,8.119-1.57,12.064-2.871
		c1.144-0.389,2.272-0.787,3.431-1.188c0.515-4.417,1.029-8.777,1.558-13.237c-0.235,0.129-0.371,0.2-0.507,0.286
		c-5.296,3.604-11.114,5.849-17.504,6.504c-2.83,0.286-5.646,0.172-8.419-0.526c-3.095-0.803-5.804-2.244-7.983-4.604
		c-2.166-2.345-3.424-5.174-4.124-8.263c-0.015-0.07,0.028-0.144,0.043-0.242c0.264-0.016,0.5-0.043,0.757-0.043
		c2.652-0.129,5.317-0.229,7.976-0.387c4.617-0.242,9.191-0.715,13.744-1.485c3.56-0.615,7.068-1.416,10.485-2.589
		c3.359-1.156,6.532-2.629,9.405-4.744c4.331-3.202,7.126-7.405,8.205-12.723C204.562,276.137,204.632,273.393,204.391,270.662z
		 M190.502,277.909c-0.65,2.545-2.108,4.546-4.095,6.204c-1.901,1.615-4.081,2.73-6.397,3.602c-2.923,1.132-5.954,1.804-9.042,2.23
		c-3.573,0.5-7.147,0.686-10.735,0.572c-1.973-0.072-3.931-0.229-5.889-0.357c-0.143,0-0.286-0.059-0.515-0.102
		c0.086-0.328,0.15-0.613,0.229-0.871c1.444-4.789,3.902-9.021,7.276-12.693c3.845-4.217,8.405-7.434,13.794-9.377
		c2.387-0.857,4.846-1.4,7.397-1.315c1.265,0.028,2.487,0.243,3.653,0.729c2.144,0.857,3.53,2.416,4.145,4.631
		C190.938,273.393,191.082,275.65,190.502,277.909z"/>
	<path d="M265.699,255.424c-2.709-1.129-5.547-1.729-8.477-1.887c-3.474-0.199-6.919,0.086-10.32,0.857
		c-6.111,1.373-11.193,4.432-15.124,9.335c-1.529,1.915-2.815,3.988-3.917,6.161c-0.071,0.143-0.157,0.285-0.235,0.429
		c-0.036-0.028-0.064-0.043-0.093-0.058c0.771-4.789,1.543-9.563,2.33-14.408c-4.689,0-9.292,0-13.938,0
		c-3.959,23.057-7.912,46.084-11.879,69.158c4.582,0,9.063,0,13.544,0c0.05-0.188,0.107-0.346,0.129-0.5
		c0.829-4.849,1.622-9.723,2.48-14.555c0.857-4.76,1.915-9.478,3.323-14.107c1.637-5.402,3.724-10.636,6.711-15.467
		c3.409-5.518,7.99-9.792,13.809-12.693c3.445-1.716,7.09-2.659,10.979-2.373c1.387,0.1,2.701,0.442,3.952,1.058
		c1.45,0.729,2.466,1.872,3.065,3.373c0.336,0.872,0.516,1.772,0.629,2.688c0.272,2.302,0.072,4.603-0.3,6.861
		c-0.786,4.688-1.63,9.377-2.451,14.053c-0.879,5.03-1.772,10.049-2.651,15.065c-0.973,5.531-1.944,11.049-2.916,16.581
		c-0.015,0.157-0.015,0.313-0.029,0.501c4.604,0,9.163,0,13.752,0c0.043-0.188,0.086-0.344,0.114-0.501
		c0.586-3.159,1.179-6.316,1.772-9.478c0.965-5.203,1.93-10.394,2.908-15.58c0.915-4.946,1.83-9.879,2.76-14.824
		c0.578-3.03,1.164-6.074,1.236-9.191c0.078-3.13-0.15-6.218-1.044-9.233C274.219,261.356,270.858,257.583,265.699,255.424z"/>
	<path d="M346.477,255.238c-0.307,0-0.527,0-0.741,0c-4.348,0-8.69,0-13.036-0.014c-0.501,0-0.758,0.156-1.001,0.586
		c-5.16,9.277-10.343,18.539-15.523,27.816c-3.488,6.231-6.976,12.479-10.464,18.727c-0.1,0.188-0.215,0.373-0.328,0.545
		c-0.036-0.017-0.079-0.029-0.115-0.043c-3.474-15.738-6.954-31.463-10.435-47.2c-4.553,0-9.048,0-13.602,0
		c5.739,23.614,11.472,47.2,17.218,70.856c0.279,0,0.479,0,0.687,0c1.315,0,2.623-0.029,3.932,0
		c0.479,0.014,0.729-0.145,0.973-0.545c2.771-4.674,5.575-9.318,8.383-13.979c11.207-18.654,22.414-37.309,33.628-55.978
		C346.177,255.781,346.305,255.553,346.477,255.238z"/>
	<path d="M541.474,258.598c-3.345,0-6.632,0-9.97,0c-0.115,0.686-0.243,1.372-0.387,2.102c0.715,0,1.313,0,1.942,0.014
		c0.622,0.015,1.243-0.071,1.896,0.072c-0.672,3.588-1.343,7.146-2.015,10.734c0.819,0,1.563,0,2.313,0
		c0.693-3.616,1.365-7.189,2.06-10.807c1.294-0.028,2.517,0.015,3.744-0.028C541.209,259.955,541.346,259.283,541.474,258.598z"/>
</g>
</svg>
