<?xml version="1.0" encoding="iso-8859-1"?>
<!-- Generator: Adobe Illustrator 17.1.0, SVG Export Plug-In . SVG Version: 6.00 Build 0)  -->
<!DOCTYPE svg PUBLIC "-//W3C//DTD SVG 1.1//EN" "http://www.w3.org/Graphics/SVG/1.1/DTD/svg11.dtd">
<svg version="1.1" id="Layer_1" xmlns="http://www.w3.org/2000/svg" xmlns:xlink="http://www.w3.org/1999/xlink" x="0px" y="0px"
	 viewBox="0 0 64 64" style="enable-background:new 0 0 64 64;" xml:space="preserve">
<g>
	<path d="M33.059,17.582l7.939-7.619c0.598-0.573,0.617-1.522,0.043-2.121c-0.572-0.597-1.523-0.617-2.121-0.043L33,13.48v-1.854
		c0.029-0.026,0.062-0.047,0.09-0.075l7.939-8.088c0.58-0.591,0.571-1.541-0.02-2.121c-0.592-0.582-1.541-0.57-2.121,0.02L33,7.36V4
		c0-0.828-0.672-1.5-1.5-1.5S30,3.172,30,4v2.882L24.56,1.45c-0.586-0.584-1.535-0.586-2.121,0.002
		c-0.585,0.586-0.585,1.536,0.002,2.121L30,11.121v1.836l-5.456-5.288C23.95,7.093,23,7.107,22.423,7.702
		c-0.576,0.595-0.562,1.545,0.033,2.121L30,17.134v1.909l-5.476-5.121c-0.604-0.565-1.553-0.535-2.12,0.071
		c-0.565,0.604-0.534,1.554,0.071,2.12L30,23.15v26.846c-1.293-0.618-3.201-1.018-4.964,0.598
		c-3.034,2.782-0.379,9.501,6.511,12.283l0.187-0.018c6.891-2.782,9.384-9.483,6.35-12.265c-1.819-1.667-3.791-1.189-5.084-0.539
		V23.631c0.005-0.005,0.012-0.006,0.018-0.011l7.939-7.077c0.618-0.552,0.673-1.5,0.122-2.118c-0.553-0.618-1.499-0.675-2.118-0.122
		L33,19.617V17.62C33.018,17.604,33.042,17.598,33.059,17.582z"/>
</g>
</svg>
